<?xml version="1.0" encoding="UTF-8"?>
<svg version="1.1" xmlns="http://www.w3.org/2000/svg" width="500" height="500">
<path d="M0 0 C0.97478188 1.9282803 1.9344943 3.8550182 2.82421875 5.82421875 C10.3134357 21.98872773 24.83367877 31.66769719 41.16894531 37.81640625 C52.8676662 41.97193645 64.82127214 44.68154117 77 47 C78.02389195 54.09358237 77.92021828 60.68134897 77.3125 67.8125 C77.17485229 69.45412109 77.17485229 69.45412109 77.03442383 71.12890625 C73.75823802 106.8785627 61.91179465 142.16434442 34.1875 166.3125 C24.01933894 174.42328995 10.44219141 183.90476288 -3 183 C-26.81677531 176.16841653 -45.77549186 158.73985301 -57.84863281 137.53393555 C-71.15330963 113.07501266 -77.30319694 85.110694 -77.0625 57.375 C-77.05798828 56.37082031 -77.05347656 55.36664063 -77.04882812 54.33203125 C-77.03718967 51.88795529 -77.0208424 49.4440118 -77 47 C-75.94425781 46.77449463 -75.94425781 46.77449463 -74.8671875 46.54443359 C-61.18369947 43.59024713 -47.86493436 40.59277985 -35 35 C-34.09894531 34.62488281 -33.19789063 34.24976563 -32.26953125 33.86328125 C-16.79666087 26.85252122 -6.32878996 15.60323791 0 0 Z " fill="#0E2648" transform="translate(250,67)"/>
<path d="M0 0 C143.22 0 286.44 0 434 0 C434 17.49 434 34.98 434 53 C290.78 53 147.56 53 0 53 C0 35.51 0 18.02 0 0 Z M8 8 C8 20.21 8 32.42 8 45 C145.94 45 283.88 45 426 45 C426 32.79 426 20.58 426 8 C288.06 8 150.12 8 8 8 Z " fill="#040404" transform="translate(33,324)"/>
<path d="M0 0 C0.97478188 1.9282803 1.9344943 3.8550182 2.82421875 5.82421875 C10.3134357 21.98872773 24.83367877 31.66769719 41.16894531 37.81640625 C52.8676662 41.97193645 64.82127214 44.68154117 77 47 C78.02389195 54.09358237 77.92021828 60.68134897 77.3125 67.8125 C77.17485229 69.45412109 77.17485229 69.45412109 77.03442383 71.12890625 C73.75823802 106.8785627 61.91179465 142.16434442 34.1875 166.3125 C24.01933894 174.42328995 10.44219141 183.90476288 -3 183 C-26.81677531 176.16841653 -45.77549186 158.73985301 -57.84863281 137.53393555 C-71.15330963 113.07501266 -77.30319694 85.110694 -77.0625 57.375 C-77.05798828 56.37082031 -77.05347656 55.36664063 -77.04882812 54.33203125 C-77.03718967 51.88795529 -77.0208424 49.4440118 -77 47 C-75.94425781 46.77449463 -75.94425781 46.77449463 -74.8671875 46.54443359 C-61.18369947 43.59024713 -47.86493436 40.59277985 -35 35 C-34.09894531 34.62488281 -33.19789063 34.24976563 -32.26953125 33.86328125 C-16.79666087 26.85252122 -6.32878996 15.60323791 0 0 Z M0 19 C-1.05574219 20.14275391 -1.05574219 20.14275391 -2.1328125 21.30859375 C-20.71630529 40.93904388 -43.56814406 47.33794288 -69 54 C-69.32288004 86.54630832 -61.52436308 125.95340601 -37.953125 150.1015625 C-37.30859375 150.72804687 -36.6640625 151.35453125 -36 152 C-34.7315625 153.3303125 -34.7315625 153.3303125 -33.4375 154.6875 C-32.2309375 155.8321875 -32.2309375 155.8321875 -31 157 C-30.47664063 157.51820313 -29.95328125 158.03640625 -29.4140625 158.5703125 C-21.70463657 165.8243293 -11.26314585 172.20096022 -1 175 C3.71547852 174.55327046 7.64968847 172.42502232 11.8125 170.3125 C12.52809082 169.95019287 13.24368164 169.58788574 13.98095703 169.21459961 C19.07941298 166.58161876 23.65780097 163.77303129 28 160 C28.78503906 159.35675781 29.57007813 158.71351563 30.37890625 158.05078125 C55.16274816 136.97505614 66.13022946 102.52482539 69 71 C69.27693052 65.32889732 69.19838039 59.67220976 69 54 C68.30140869 53.82460693 67.60281738 53.64921387 66.88305664 53.46850586 C40.01301339 46.65666193 19.86617912 39.04678074 0 19 Z " fill="#102847" transform="translate(250,67)"/>
<path d="M0 0 C0.73476562 0.73734375 1.46953125 1.4746875 2.2265625 2.234375 C21.43559949 21.38930203 42.93834065 29.04069539 69 35 C70.23066763 70.18797804 60.02936476 106.33792348 36.96484375 133.38671875 C29.63596332 141.04667797 21.03930531 146.68739887 11.625 151.4375 C10.94695312 151.77974609 10.26890625 152.12199219 9.5703125 152.47460938 C1.13001287 156.58590612 1.13001287 156.58590612 -3.7265625 155.25 C-29.33280327 144.2068773 -46.7729753 125.12611329 -57.33203125 99.4609375 C-62.98604631 84.89746513 -66.65224575 69.47385014 -68.125 53.9375 C-68.21136719 53.10412109 -68.29773438 52.27074219 -68.38671875 51.41210938 C-68.92567267 45.91563492 -69.07785897 40.52242577 -69 35 C-68.20529297 34.79431396 -67.41058594 34.58862793 -66.59179688 34.37670898 C-40.34905803 27.52540911 -18.98365629 20.35321867 0 0 Z M-2.93359375 13.8359375 C-3.75988281 14.67382812 -4.58617187 15.51171875 -5.4375 16.375 C-20.24216102 30.44385293 -41.51605303 36.64476479 -61 41 C-62.72682011 69.46055369 -52.32561883 102.22263789 -34 124 C-33.2678125 124.89460938 -32.535625 125.78921875 -31.78125 126.7109375 C-26.79317675 132.55962902 -21.58651932 137.04625372 -15 141 C-14.45118164 141.33757324 -13.90236328 141.67514648 -13.33691406 142.02294922 C-6.39156324 146.34856718 -6.39156324 146.34856718 1.4375 148.05078125 C3.91012654 147.33717396 5.79401748 146.33170516 8 145 C9.52753906 144.16275391 9.52753906 144.16275391 11.0859375 143.30859375 C36.2751183 128.77637406 48.74038418 105.38066495 56.8125 78.375 C59.81974177 66.11170241 61.61220119 53.62948375 61 41 C60.030625 40.78085938 59.06125 40.56171875 58.0625 40.3359375 C38.13644276 35.68644046 16.80571869 28.50698424 2.359375 13.26953125 C0.05811694 11.12036783 -0.74295391 11.75593603 -2.93359375 13.8359375 Z " fill="#3EB6C0" transform="translate(250,86)"/>
<path d="M0 0 C3.22892755 1.47608117 5.53271972 3.64689929 8.1875 6 C6.82483356 10.03805866 5.0465849 12.54368118 2.125 15.625 C-1.07910562 19.08420957 -4.16092269 22.58276566 -7.125 26.25 C-10.61683205 30.564515 -14.18839673 34.79697561 -17.8125 39 C-22.91238661 44.92097317 -27.8898759 50.930528 -32.8125 57 C-34.49807747 59.06407933 -36.18663591 61.12569712 -37.875 63.1875 C-38.62910156 64.10917969 -39.38320312 65.03085938 -40.16015625 65.98046875 C-40.70542969 66.64691406 -41.25070313 67.31335938 -41.8125 68 C-50.6165804 60.47984799 -59.26428031 52.80967865 -67.8125 45 C-66.91220429 43.65555841 -65.99161978 42.32468562 -65.0625 41 C-64.29679688 39.88625 -64.29679688 39.88625 -63.515625 38.75 C-62.67257813 37.88375 -62.67257813 37.88375 -61.8125 37 C-56.90128077 37 -56.2649395 38.01268359 -52.8125 41.3125 C-49.90952547 44.06059021 -47.06621453 46.6726903 -43.8125 49 C-37.69595873 42.44901281 -31.75401182 35.83514616 -26.12890625 28.8515625 C-23.5475334 25.67381852 -20.90500427 22.55367014 -18.25 19.4375 C-14.22399645 14.70806572 -10.30160031 9.91194574 -6.46875 5.0234375 C-2.35690154 0 -2.35690154 0 0 0 Z " fill="#3CB9C2" transform="translate(281.8125,128)"/>
<path d="M0 0 C5.4759375 -0.0928125 5.4759375 -0.0928125 11.0625 -0.1875 C12.76805054 -0.22846802 12.76805054 -0.22846802 14.50805664 -0.27026367 C21.29316805 -0.32573755 26.69132516 0.0115195 31.9375 4.75 C33.47226793 8.0000968 33.38000524 10.45328447 33 14 C31.5 16.4375 31.5 16.4375 30 18 C30.639375 18.474375 31.27875 18.94875 31.9375 19.4375 C34.78824 22.97932849 35.2378443 26.49681456 35 31 C34.0732049 34.14406439 33.17137262 34.89766026 30.31933594 36.60083008 C26.73688898 38.11090683 24.37127646 38.34816109 20.5078125 38.29296875 C19.4264502 38.28547607 18.34508789 38.2779834 17.23095703 38.27026367 C15.87599121 38.24295166 14.52102539 38.21563965 13.125 38.1875 C8.79375 38.125625 4.4625 38.06375 0 38 C0 25.46 0 12.92 0 0 Z M9 8 C9 10.31 9 12.62 9 15 C11.14576637 15.02685938 13.29162645 15.04633088 15.4375 15.0625 C17.22994141 15.07990234 17.22994141 15.07990234 19.05859375 15.09765625 C21.88873341 15.33901792 21.88873341 15.33901792 23 14 C23.04063832 12.33382885 23.042721 10.66611905 23 9 C20.23547967 7.61773984 17.9538637 7.90474613 14.875 7.9375 C13.77929688 7.94652344 12.68359375 7.95554687 11.5546875 7.96484375 C10.29011719 7.98224609 10.29011719 7.98224609 9 8 Z M9 23 C9 25.64 9 28.28 9 31 C11.10388569 31.05402274 13.20816714 31.09280256 15.3125 31.125 C16.48425781 31.14820313 17.65601563 31.17140625 18.86328125 31.1953125 C22.16393661 31.25320618 22.16393661 31.25320618 25 29 C24.62095792 25.70924004 24.62095792 25.70924004 23 23 C20.64686445 22.92728259 18.29166332 22.91629132 15.9375 22.9375 C14.64714844 22.94652344 13.35679687 22.95554687 12.02734375 22.96484375 C11.02832031 22.97644531 10.02929688 22.98804688 9 23 Z " fill="#030303" transform="translate(226,273)"/>
<path d="M0 0 C5.4759375 -0.0928125 5.4759375 -0.0928125 11.0625 -0.1875 C12.76805054 -0.22846802 12.76805054 -0.22846802 14.50805664 -0.27026367 C21.29316805 -0.32573755 26.69132516 0.0115195 31.9375 4.75 C33.47226793 8.0000968 33.38000524 10.45328447 33 14 C31.5 16.4375 31.5 16.4375 30 18 C30.639375 18.474375 31.27875 18.94875 31.9375 19.4375 C34.78824 22.97932849 35.2378443 26.49681456 35 31 C34.0732049 34.14406439 33.17137262 34.89766026 30.31933594 36.60083008 C26.73688898 38.11090683 24.37127646 38.34816109 20.5078125 38.29296875 C19.4264502 38.28547607 18.34508789 38.2779834 17.23095703 38.27026367 C15.87599121 38.24295166 14.52102539 38.21563965 13.125 38.1875 C8.79375 38.125625 4.4625 38.06375 0 38 C0 25.46 0 12.92 0 0 Z M9 8 C9 10.31 9 12.62 9 15 C11.14576637 15.02685938 13.29162645 15.04633088 15.4375 15.0625 C17.22994141 15.07990234 17.22994141 15.07990234 19.05859375 15.09765625 C21.88873341 15.33901792 21.88873341 15.33901792 23 14 C23.04063832 12.33382885 23.042721 10.66611905 23 9 C20.23547967 7.61773984 17.9538637 7.90474613 14.875 7.9375 C13.77929688 7.94652344 12.68359375 7.95554687 11.5546875 7.96484375 C10.29011719 7.98224609 10.29011719 7.98224609 9 8 Z M9 23 C9 25.64 9 28.28 9 31 C11.10388569 31.05402274 13.20816714 31.09280256 15.3125 31.125 C16.48425781 31.14820313 17.65601563 31.17140625 18.86328125 31.1953125 C22.16393661 31.25320618 22.16393661 31.25320618 25 29 C24.62095792 25.70924004 24.62095792 25.70924004 23 23 C20.64686445 22.92728259 18.29166332 22.91629132 15.9375 22.9375 C14.64714844 22.94652344 13.35679688 22.95554687 12.02734375 22.96484375 C11.02832031 22.97644531 10.02929688 22.98804688 9 23 Z " fill="#020202" transform="translate(38,273)"/>
<path d="M0 0 C9 0 9 0 11.6015625 2.08984375 C12.26929688 3.02957031 12.93703125 3.96929687 13.625 4.9375 C14.35847656 5.93265625 15.09195313 6.9278125 15.84765625 7.953125 C16.91306641 9.46132813 16.91306641 9.46132813 18 11 C19.34617256 12.73539741 20.6995239 14.46526863 22.0625 16.1875 C23.5165625 18.0746875 23.5165625 18.0746875 25 20 C25.33 13.4 25.66 6.8 26 0 C29.3 0 32.6 0 36 0 C36 12.54 36 25.08 36 38 C27 38 27 38 23.63671875 35.11328125 C22.62614467 33.8681802 21.64326841 32.60015031 20.6875 31.3125 C19.94016602 30.37374023 19.94016602 30.37374023 19.17773438 29.41601562 C18.24385784 28.23787548 17.32067362 27.05110743 16.4128418 25.8527832 C14.64777065 23.5380908 12.81841819 21.27302274 11 19 C10.67 25.27 10.34 31.54 10 38 C6.7 38 3.4 38 0 38 C0 25.46 0 12.92 0 0 Z " fill="#020202" transform="translate(123,273)"/>
<path d="M0 0 C3.444375 -0.061875 6.88875 -0.12375 10.4375 -0.1875 C11.50411865 -0.21481201 12.5707373 -0.24212402 13.66967773 -0.27026367 C20.90564431 -0.3325215 27.56489534 0.24852636 33.375 4.90234375 C33.91125 5.57394531 34.4475 6.24554688 35 6.9375 C35.556875 7.60652344 36.11375 8.27554687 36.6875 8.96484375 C39.59918688 13.47969156 39.61656419 18.78489459 39 24 C37.28508285 29.3031949 34.76331086 32.97936384 30 36 C26.20102382 37.80888184 23.23671089 38.23832524 19.04296875 38.1953125 C18.04031982 38.19031738 17.0376709 38.18532227 16.00463867 38.18017578 C14.74498291 38.16196777 13.48532715 38.14375977 12.1875 38.125 C6.1546875 38.063125 6.1546875 38.063125 0 38 C0 25.46 0 12.92 0 0 Z M10 8 C10 15.26 10 22.52 10 30 C12.8153125 30.0928125 12.8153125 30.0928125 15.6875 30.1875 C17.27111328 30.23970703 17.27111328 30.23970703 18.88671875 30.29296875 C22.3881953 29.9634697 24.18108794 29.05377878 27 27 C29.34100123 23.99014128 29.42128203 20.71939673 29.31640625 16.96484375 C28.79978644 13.75669849 27.34930067 12.15881683 25 10 C20.02104478 6.92476295 16.40068976 8 10 8 Z " fill="#030202" transform="translate(166,273)"/>
<path d="M0 0 C9 0 9 0 11.34765625 1.8359375 C12.19650391 3.09277344 12.19650391 3.09277344 13.0625 4.375 C13.70316406 5.27734375 14.34382813 6.1796875 15.00390625 7.109375 C15.66261719 8.06328125 16.32132812 9.0171875 17 10 C18.48597075 11.88613783 19.9854381 13.76174283 21.5 15.625 C22.655 17.06875 23.81 18.5125 25 20 C25.33 13.4 25.66 6.8 26 0 C28.97 0 31.94 0 35 0 C35 12.54 35 25.08 35 38 C27 38 27 38 24.49609375 36.12890625 C23.81675781 35.28199219 23.13742187 34.43507813 22.4375 33.5625 C21.695 32.65886719 20.9525 31.75523437 20.1875 30.82421875 C19.465625 29.89222656 18.74375 28.96023438 18 28 C17.29875 27.11957031 16.5975 26.23914063 15.875 25.33203125 C14.22560664 23.24036104 12.60918715 21.12275752 11 19 C10.67 25.27 10.34 31.54 10 38 C6.7 38 3.4 38 0 38 C0 25.46 0 12.92 0 0 Z " fill="#020202" transform="translate(427,273)"/>
<path d="M0 0 C4.90996621 2.96083028 8.22973684 6.57755639 10.75390625 11.74609375 C11.96820454 17.59680367 11.5455469 23.48339368 8.81640625 28.87109375 C5.44920327 33.39023459 1.7964849 36.27356753 -3.55859375 38.05859375 C-10.96356619 38.72778385 -17.48585307 38.71120576 -23.55859375 34.05859375 C-28.41007954 29.38757898 -30.68736115 25.72722069 -30.87109375 18.87109375 C-30.79933974 13.43931494 -29.93330541 9.38489561 -26.55859375 5.05859375 C-19.36767038 -1.49495232 -9.2827139 -3.41547183 0 0 Z M-19.55859375 12.05859375 C-21.28984496 15.52109618 -21.03674599 19.27267604 -20.55859375 23.05859375 C-18.51578321 26.48759715 -16.46151288 28.97444955 -12.55859375 30.05859375 C-7.81395728 29.98328206 -5.54641578 29.73115343 -1.62109375 27.05859375 C1.09391672 23.10948761 1.87842539 19.83218748 1.44140625 15.05859375 C-0.15055326 11.81571326 -1.50464184 9.85814347 -4.37109375 7.68359375 C-11.3415646 5.69203065 -14.70395073 7.20395073 -19.55859375 12.05859375 Z " fill="#040404" transform="translate(410.55859375,273.94140625)"/>
<path d="M0 0 C1.20269531 -0.02578125 2.40539062 -0.0515625 3.64453125 -0.078125 C8.31340324 0.35427329 11.53061813 1.75597404 15.015625 4.8984375 C19.56361966 10.42100244 21.6935784 14.63886761 21.5 21.91015625 C20.78112993 27.29269589 18.29550253 31.54990474 14.25 35.125 C7.77515363 39.61775055 1.91608255 40.05296962 -5.8125 39.25 C-12.67832997 37.26903922 -16.64856351 33.06265001 -20.125 26.9375 C-21.76812496 20.51437516 -21.41821361 14.93431002 -18.15625 9.109375 C-13.25434553 2.32650718 -8.26531574 0.10562704 0 0 Z M-9.625 12.9375 C-11.37989404 16.35492524 -11.45458928 19.54015084 -10.8125 23.25 C-9.08957034 26.69585933 -7.77371291 28.65248927 -4.5 30.6875 C-0.87349111 31.44653674 1.60325392 31.21006591 5.1875 30.25 C9.27018611 26.78859221 11.02931849 24.8318151 11.5625 19.5 C11.53808775 16.14941932 10.94351354 14.40105468 8.8125 11.8125 C5.73451856 8.80780383 5.12283034 8.32059097 0.875 8 C-3.91043901 8.32443654 -6.17929841 9.72943301 -9.625 12.9375 Z " fill="#030303" transform="translate(96.8125,272.75)"/>
<path d="M0 0 C9.9 0 19.8 0 30 0 C30 2.64 30 5.28 30 8 C23.4 8 16.8 8 10 8 C10 10.31 10 12.62 10 15 C15.61 15 21.22 15 27 15 C27 17.64 27 20.28 27 23 C21.39 23 15.78 23 10 23 C10 25.64 10 28.28 10 31 C16.6 31 23.2 31 30 31 C30 33.31 30 35.62 30 38 C20.1 38 10.2 38 0 38 C0 25.46 0 12.92 0 0 Z " fill="#030202" transform="translate(266,273)"/>
<path d="M0 0 C1.23556641 0.01740234 1.23556641 0.01740234 2.49609375 0.03515625 C3.32238281 0.04417969 4.14867187 0.05320312 5 0.0625 C5.63808594 0.07410156 6.27617187 0.08570313 6.93359375 0.09765625 C11.47740407 8.9624197 15.8284407 17.89542341 19.93359375 26.97265625 C20.33118896 27.84631836 20.72878418 28.71998047 21.13842773 29.62011719 C21.50395752 30.43512695 21.8694873 31.25013672 22.24609375 32.08984375 C22.57222656 32.8154248 22.89835937 33.54100586 23.234375 34.28857422 C23.93359375 36.09765625 23.93359375 36.09765625 23.93359375 38.09765625 C20.63359375 38.09765625 17.33359375 38.09765625 13.93359375 38.09765625 C10.93359375 32.34765625 10.93359375 32.34765625 10.93359375 30.09765625 C5.32359375 30.09765625 -0.28640625 30.09765625 -6.06640625 30.09765625 C-6.56140625 32.57265625 -6.56140625 32.57265625 -7.06640625 35.09765625 C-7.72640625 36.08765625 -8.38640625 37.07765625 -9.06640625 38.09765625 C-11.44921875 38.390625 -11.44921875 38.390625 -14.19140625 38.28515625 C-15.55652344 38.24455078 -15.55652344 38.24455078 -16.94921875 38.203125 C-17.64789063 38.16832031 -18.3465625 38.13351562 -19.06640625 38.09765625 C-14.7546916 28.00509372 -10.44034215 17.91344398 -6.06640625 7.84765625 C-5.63122681 6.83928711 -5.63122681 6.83928711 -5.18725586 5.81054688 C-2.70901172 0.12802513 -2.70901172 0.12802513 0 0 Z M1.93359375 11.09765625 C1.26272255 12.72092495 0.59702346 14.34633203 -0.06640625 15.97265625 C-0.43765625 16.87757813 -0.80890625 17.7825 -1.19140625 18.71484375 C-2.18130851 20.98749483 -2.18130851 20.98749483 -2.06640625 23.09765625 C1.23359375 23.09765625 4.53359375 23.09765625 7.93359375 23.09765625 C6.28359375 19.13765625 4.63359375 15.17765625 2.93359375 11.09765625 C2.60359375 11.09765625 2.27359375 11.09765625 1.93359375 11.09765625 Z " fill="#030303" transform="translate(316.06640625,272.90234375)"/>
<path d="M0 0 C1.89158742 1.19450869 3.6217709 2.41210377 5.30859375 3.87890625 C4.6000034 7.07749636 4.07545739 8.93185406 1.30859375 10.87890625 C-1.73311585 10.59374597 -3.08186427 9.6186009 -5.69140625 7.87890625 C-11.51088962 7.29820098 -11.51088962 7.29820098 -16.62890625 9.75390625 C-20.00907436 13.2365037 -20.09939357 15.91528124 -20.03125 20.6171875 C-19.81719855 23.16482341 -19.81719855 23.16482341 -17.62890625 25.87890625 C-14.09196183 28.28703862 -11.96577219 28.87890625 -7.69140625 28.87890625 C-4.4742768 27.52076618 -4.4742768 27.52076618 -1.69140625 25.87890625 C1.30859375 25.87890625 1.30859375 25.87890625 3.49609375 27.87890625 C4.09421875 28.53890625 4.69234375 29.19890625 5.30859375 29.87890625 C3.91299648 33.25159965 2.41643495 34.95935727 -0.69140625 36.87890625 C-7.57855075 39.00145294 -14.58825218 38.77714191 -21.12890625 35.75390625 C-26.45801896 32.77637026 -28.75348347 29.69267458 -30.69140625 23.87890625 C-31.39690577 16.71982096 -31.0080334 10.80726108 -26.69140625 4.87890625 C-19.78170808 -1.85362017 -8.98619786 -3.74316224 0 0 Z " fill="#040404" transform="translate(371.69140625,274.12109375)"/>
<path d="M0 0 C8.17817372 -0.36080178 8.17817372 -0.36080178 11.5625 1.125 C13.60575813 3.7901193 13.19777837 5.70369389 13 9 C13.20625 9.886875 13.4125 10.77375 13.625 11.6875 C14 14 14 14 12 17 C7.97409284 17.41820365 4.05612469 17.12945079 0 17 C0 11.39 0 5.78 0 0 Z M4 4 C4 4.99 4 5.98 4 7 C5.65 6.67 7.3 6.34 9 6 C8.67 5.34 8.34 4.68 8 4 C6.68 4 5.36 4 4 4 Z M4 10 C4 11.32 4 12.64 4 14 C5.65 14 7.3 14 9 14 C9 12.68 9 11.36 9 10 C7.35 10 5.7 10 4 10 Z " fill="#050505" transform="translate(394,340)"/>
<path d="M0 0 C8.625 -0.25 8.625 -0.25 12 2 C12.04443347 3.99950636 12.03920815 6.00038436 12 8 C12.556875 9.299375 12.556875 9.299375 13.125 10.625 C13.41375 11.40875 13.7025 12.1925 14 13 C13.34 14.32 12.68 15.64 12 17 C8.04 17 4.08 17 0 17 C0 11.39 0 5.78 0 0 Z M4 4 C4 4.99 4 5.98 4 7 C5.32 6.67 6.64 6.34 8 6 C8 5.34 8 4.68 8 4 C6.68 4 5.36 4 4 4 Z M4 10 C4 11.32 4 12.64 4 14 C5.65 14 7.3 14 9 14 C8.67 12.68 8.34 11.36 8 10 C6.68 10 5.36 10 4 10 Z " fill="#040404" transform="translate(256,340)"/>
<path d="M0 0 C9.76931447 -0.43743199 9.76931447 -0.43743199 14 3 C15.60813266 6.21626531 15.45492615 9.51223287 15 13 C13.6875 15.5 13.6875 15.5 11 17 C7.26593557 17.32236527 3.76274489 17.17917833 0 17 C0 11.39 0 5.78 0 0 Z M4 4 C4 7.3 4 10.6 4 14 C5.98 13.67 7.96 13.34 10 13 C10.76716851 10.14921909 10.76716851 10.14921909 11 7 C9.93654948 5.01970318 9.93654948 5.01970318 8 4 C6.68 4 5.36 4 4 4 Z " fill="#070707" transform="translate(231,340)"/>
<path d="M0 0 C8.19057816 -0.48179872 8.19057816 -0.48179872 11.625 1.5625 C13.56608207 5.00350912 12.72399835 7.18255413 12 11 C12.36887653 14.30714584 12.36887653 14.30714584 13 17 C11.68 17 10.36 17 9 17 C8.731875 16.195625 8.46375 15.39125 8.1875 14.5625 C7.795625 13.716875 7.40375 12.87125 7 12 C6.01 11.67 5.02 11.34 4 11 C4 12.98 4 14.96 4 17 C2.68 17 1.36 17 0 17 C0 11.39 0 5.78 0 0 Z M4 4 C4 4.99 4 5.98 4 7 C5.32 7 6.64 7 8 7 C8 6.01 8 5.02 8 4 C6.68 4 5.36 4 4 4 Z " fill="#080808" transform="translate(202,340)"/>
<path d="M0 0 C8.19057816 -0.48179872 8.19057816 -0.48179872 11.625 1.5625 C13.56608207 5.00350912 12.72399835 7.18255413 12 11 C12.36887653 14.30714584 12.36887653 14.30714584 13 17 C11.68 17 10.36 17 9 17 C8.731875 16.195625 8.46375 15.39125 8.1875 14.5625 C7.795625 13.716875 7.40375 12.87125 7 12 C6.01 11.67 5.02 11.34 4 11 C4 12.98 4 14.96 4 17 C2.68 17 1.36 17 0 17 C0 11.39 0 5.78 0 0 Z M4 4 C4 4.99 4 5.98 4 7 C5.32 7 6.64 7 8 7 C8 6.01 8 5.02 8 4 C6.68 4 5.36 4 4 4 Z " fill="#040404" transform="translate(127,340)"/>
<path d="M0 0 C8.625 -0.25 8.625 -0.25 12 2 C12.25660094 5.07921132 12.39431504 7.21136993 11 10 C11.60760482 12.3494053 12.27129528 14.68529088 13 17 C11.35 16.67 9.7 16.34 8 16 C7.67 14.35 7.34 12.7 7 11 C6.01 11 5.02 11 4 11 C4 12.98 4 14.96 4 17 C2.68 17 1.36 17 0 17 C0 11.39 0 5.78 0 0 Z M4 4 C4 4.99 4 5.98 4 7 C5.32 7 6.64 7 8 7 C8 6.01 8 5.02 8 4 C6.68 4 5.36 4 4 4 Z " fill="#050505" transform="translate(329,340)"/>
<path d="M0 0 C1.32 0 2.64 0 4 0 C4.33 4.29 4.66 8.58 5 13 C6.32 12.67 7.64 12.34 9 12 C9.33 8.04 9.66 4.08 10 0 C11.32 0 12.64 0 14 0 C14.05398987 2.27057377 14.09278742 4.54151288 14.125 6.8125 C14.14820312 8.07707031 14.17140625 9.34164063 14.1953125 10.64453125 C14 14 14 14 12 17 C5.19116793 18.53747821 5.19116793 18.53747821 1.7578125 16.98828125 C-0.86091621 14.02620811 -0.43170519 11.05492814 -0.25 7.3125 C-0.23195313 6.61060547 -0.21390625 5.90871094 -0.1953125 5.18554688 C-0.14826213 3.45644564 -0.07651873 1.72804795 0 0 Z " fill="#060606" transform="translate(110,340)"/>
<path d="M0 0 C1.875 1.5 1.875 1.5 3 3 C2.67 3.66 2.34 4.32 2 5 C-0.31 4.67 -2.62 4.34 -5 4 C-5 4.66 -5 5.32 -5 6 C-3.2984375 6.4640625 -3.2984375 6.4640625 -1.5625 6.9375 C2 8 2 8 3 9 C3.3125 11.875 3.3125 11.875 3 15 C1.4375 16.9375 1.4375 16.9375 -1 18 C-4.625 17.9375 -4.625 17.9375 -8 17 C-9.4375 14.9375 -9.4375 14.9375 -10 13 C-6.94736336 12.01879536 -5.05263664 12.01879536 -2 13 C-3.86745332 10.82566857 -3.86745332 10.82566857 -6.5625 10.1875 C-9 9 -9 9 -10.0625 6.625 C-10 4 -10 4 -8.4375 1.6875 C-5.34610467 -0.45269677 -3.68983715 -0.54955021 0 0 Z " fill="#090909" transform="translate(75,340)"/>
<path d="M0 0 C1.65 0 3.3 0 5 0 C7.32330984 5.60526694 9.46745644 11.12524968 11 17 C9.35 17 7.7 17 6 17 C5.67 16.34 5.34 15.68 5 15 C3.35 15 1.7 15 0 15 C-0.33 15.66 -0.66 16.32 -1 17 C-2.32 17 -3.64 17 -5 17 C-3.83348574 11.07136283 -2.24480642 5.61201606 0 0 Z M2 6 C1.67 7.32 1.34 8.64 1 10 C1.99 10 2.98 10 4 10 C3.34 8.68 2.68 7.36 2 6 Z " fill="#050505" transform="translate(382,340)"/>
<path d="M0 0 C3.96 0 7.92 0 12 0 C12 1.32 12 2.64 12 4 C9.69 4 7.38 4 5 4 C5 4.99 5 5.98 5 7 C6.98 7 8.96 7 11 7 C11 7.99 11 8.98 11 10 C9.02 10 7.04 10 5 10 C5 11.32 5 12.64 5 14 C7.31 14 9.62 14 12 14 C12 14.99 12 15.98 12 17 C8.04 17 4.08 17 0 17 C0 11.39 0 5.78 0 0 Z " fill="#050505" transform="translate(217,340)"/>
<path d="M0 0 C3.96 0 7.92 0 12 0 C12 1.32 12 2.64 12 4 C9.69 4 7.38 4 5 4 C5 4.99 5 5.98 5 7 C6.98 7 8.96 7 11 7 C11 7.99 11 8.98 11 10 C9.02 10 7.04 10 5 10 C5 11.32 5 12.64 5 14 C7.31 14 9.62 14 12 14 C12 14.99 12 15.98 12 17 C8.04 17 4.08 17 0 17 C0 11.39 0 5.78 0 0 Z " fill="#040504" transform="translate(142,340)"/>
<path d="M0 0 C2.375 1.5 2.375 1.5 4 3 C3.67 3.99 3.34 4.98 3 6 C0.36 5.67 -2.28 5.34 -5 5 C-5 7.31 -5 9.62 -5 12 C-2.39417629 12.93065133 -1.35801776 13.14917407 1.25 12.0625 C1.8275 11.711875 2.405 11.36125 3 11 C3.33 12.32 3.66 13.64 4 15 C2.4375 16.5625 2.4375 16.5625 0 18 C-3.55095179 17.8754052 -6.01287444 17.75679626 -8.875 15.5625 C-11.22145582 12.30353359 -11.31291709 9.98969291 -11 6 C-8.26601376 0.40775542 -6.16976777 -0.49358142 0 0 Z " fill="#0B0B0B" transform="translate(104,340)"/>
<path d="M0 0 C0.99 0.66 1.98 1.32 3 2 C2.67 3.32 2.34 4.64 2 6 C1.01 6 0.02 6 -1 6 C-1 5.34 -1 4.68 -1 4 C-2.65 4.66 -4.3 5.32 -6 6 C-6 7.98 -6 9.96 -6 12 C-3.39417629 12.93065133 -2.35801776 13.14917407 0.25 12.0625 C0.8275 11.711875 1.405 11.36125 2 11 C2.66 11.66 3.32 12.32 4 13 C1.9375 15.5625 1.9375 15.5625 -1 18 C-4.49449057 18 -6.83590701 17.8622911 -9.6875 15.75 C-11.43787622 13.41616504 -11.40083094 11.89306558 -11.375 9 C-11.38273438 8.13375 -11.39046875 7.2675 -11.3984375 6.375 C-10.92745081 3.5675499 -10.21268047 2.72697012 -8 1 C-5.22899606 -0.38550197 -3.0665294 -0.1877467 0 0 Z " fill="#090909" transform="translate(197,340)"/>
<path d="M0 0 C3.96 0 7.92 0 12 0 C12 1.32 12 2.64 12 4 C9.36 4 6.72 4 4 4 C4 4.99 4 5.98 4 7 C6.31 7 8.62 7 11 7 C11 7.99 11 8.98 11 10 C8.69 10 6.38 10 4 10 C4 11.32 4 12.64 4 14 C6.64 14 9.28 14 12 14 C12 14.99 12 15.98 12 17 C8.04 17 4.08 17 0 17 C0 11.39 0 5.78 0 0 Z " fill="#040404" transform="translate(423,340)"/>
<path d="M0 0 C3.96 0 7.92 0 12 0 C12 1.32 12 2.64 12 4 C9.36 4 6.72 4 4 4 C4 4.99 4 5.98 4 7 C6.31 7 8.62 7 11 7 C11 7.99 11 8.98 11 10 C8.69 10 6.38 10 4 10 C4 11.32 4 12.64 4 14 C6.64 14 9.28 14 12 14 C12 14.99 12 15.98 12 17 C8.04 17 4.08 17 0 17 C0 11.39 0 5.78 0 0 Z " fill="#060606" transform="translate(344,340)"/>
<path d="M0 0 C3.96 0 7.92 0 12 0 C12 1.32 12 2.64 12 4 C9.36 4 6.72 4 4 4 C4 4.99 4 5.98 4 7 C6.31 7 8.62 7 11 7 C11 7.99 11 8.98 11 10 C8.69 10 6.38 10 4 10 C4 11.32 4 12.64 4 14 C6.64 14 9.28 14 12 14 C12 14.99 12 15.98 12 17 C8.04 17 4.08 17 0 17 C0 11.39 0 5.78 0 0 Z " fill="#040505" transform="translate(80,340)"/>
<path d="M0 0 C3.96 0 7.92 0 12 0 C12 1.32 12 2.64 12 4 C9.36 4 6.72 4 4 4 C4 4.99 4 5.98 4 7 C6.31 7 8.62 7 11 7 C11 7.99 11 8.98 11 10 C8.69 10 6.38 10 4 10 C4 11.32 4 12.64 4 14 C6.64 14 9.28 14 12 14 C12 14.99 12 15.98 12 17 C8.04 17 4.08 17 0 17 C0 11.39 0 5.78 0 0 Z " fill="#040505" transform="translate(285,340)"/>
<path d="M0 0 C3.32759923 1.55194754 5.48580485 3.30621949 8 6 C7.01 6.66 6.02 7.32 5 8 C4.01 9.485 4.01 9.485 3 11 C1.33333333 11 -0.33333333 11 -2 11 C-0.21326795 12.5058745 1.57953508 14.0045485 3.375 15.5 C4.87160156 16.75296875 4.87160156 16.75296875 6.3984375 18.03125 C8.72204708 20.20114756 8.72204708 20.20114756 11 20 C11.66 21.32 12.32 22.64 13 24 C12.01 24.33 11.02 24.66 10 25 C9.27296875 24.25556641 9.27296875 24.25556641 8.53125 23.49609375 C4.35159266 19.26017179 0.09530635 15.28869995 -4.53125 11.54296875 C-6 10 -6 10 -6 7 C-4.6875 5.17578125 -4.6875 5.17578125 -3 3.3125 C-2.443125 2.68988281 -1.88625 2.06726563 -1.3125 1.42578125 C-0.879375 0.95527344 -0.44625 0.48476562 0 0 Z " fill="#3FB4BF" transform="translate(221,164)"/>
<path d="M0 0 C0.33 0 0.66 0 1 0 C1.08636719 0.76699219 1.17273438 1.53398437 1.26171875 2.32421875 C3.05256869 16.47029031 5.95167788 30.88024518 11.30078125 44.13671875 C12 46 12 46 12 48 C11.34 48 10.68 48 10 48 C10 47.01 10 46.02 10 45 C9.01 44.67 8.02 44.34 7 44 C6.11882073 41.12069515 5.41875778 38.37442971 4.8125 35.4375 C4.63525391 34.63119141 4.45800781 33.82488281 4.27539062 32.99414062 C3.83850399 30.9986314 3.41773327 28.99960644 3 27 C0.69 27.33 -1.62 27.66 -4 28 C-4.33 26.02 -4.66 24.04 -5 22 C-4.34 22 -3.68 22 -3 22 C-3 22.66 -3 23.32 -3 24 C0.2117961 22.36221601 0.2117961 22.36221601 0.51171875 19.6171875 C0.56972656 18.71226562 0.62773437 17.80734375 0.6875 16.875 C0.75324219 15.96492187 0.81898438 15.05484375 0.88671875 14.1171875 C0.92410156 13.41851562 0.96148437 12.71984375 1 12 C0.34 12 -0.32 12 -1 12 C-1.08159574 7.83861737 -0.98248524 4.0527516 0 0 Z " fill="#0D2E4C" transform="translate(182,140)"/>
<path d="M0 0 C1.32 0 2.64 0 4 0 C4 4.62 4 9.24 4 14 C6.31 14 8.62 14 11 14 C11 14.99 11 15.98 11 17 C7.37 17 3.74 17 0 17 C0 11.39 0 5.78 0 0 Z " fill="#050605" transform="translate(358,340)"/>
<path d="M0 0 C1.32 0 2.64 0 4 0 C4 4.62 4 9.24 4 14 C6.31 14 8.62 14 11 14 C11 14.99 11 15.98 11 17 C7.37 17 3.74 17 0 17 C0 11.39 0 5.78 0 0 Z " fill="#050505" transform="translate(272,340)"/>
<path d="M0 0 C1.32 0 2.64 0 4 0 C4 4.62 4 9.24 4 14 C6.31 14 8.62 14 11 14 C11 14.99 11 15.98 11 17 C7.37 17 3.74 17 0 17 C0 11.39 0 5.78 0 0 Z " fill="#040504" transform="translate(410,340)"/>
<path d="M0 0 C1.65 0 3.3 0 5 0 C5 5.61 5 11.22 5 17 C3.35 17 1.7 17 0 17 C0 11.39 0 5.78 0 0 Z " fill="#060606" transform="translate(248,340)"/>
<path d="M0 0 C0.66 0 1.32 0 2 0 C0.70931268 4.63288815 -1.0438844 7.69753944 -4.125 11.375 C-5.21167969 12.68597656 -5.21167969 12.68597656 -6.3203125 14.0234375 C-7.15175781 15.00183594 -7.15175781 15.00183594 -8 16 C-8.99 14.68 -9.98 13.36 -11 12 C-14.36591866 13.44253657 -16.51047079 15.33264727 -19 18 C-19.66 17.67 -20.32 17.34 -21 17 C-20.48050781 16.50371094 -19.96101563 16.00742188 -19.42578125 15.49609375 C-15.07159457 11.25458473 -11.37180778 7.05771167 -8 2 C-6.75453595 4.49092811 -7.2232422 5.41080733 -8 8 C-7.01 8 -6.02 8 -5 8 C-2.82609125 5.5652222 -1.36970255 2.95012857 0 0 Z " fill="#42AFBC" transform="translate(296,202)"/>
<path d="M0 0 C6.93 3.96 6.93 3.96 14 8 C14 8.66 14 9.32 14 10 C13.34 10 12.68 10 12 10 C11.67 10.99 11.34 11.98 11 13 C8.69 12.67 6.38 12.34 4 12 C3.67 9.03 3.34 6.06 3 3 C2.01 2.67 1.02 2.34 0 2 C0 1.34 0 0.68 0 0 Z " fill="#0C2749" transform="translate(225,229)"/>
<path d="M0 0 C1.32 0 2.64 0 4 0 C4 5.61 4 11.22 4 17 C2.68 17 1.36 17 0 17 C0 11.39 0 5.78 0 0 Z " fill="#060606" transform="translate(371,340)"/>
<path d="M0 0 C0.99 0.33 1.98 0.66 3 1 C1.69675781 2.485 1.69675781 2.485 0.3671875 4 C-6.93357996 12.27077406 -6.93357996 12.27077406 -13.75 20.9375 C-14.4925 21.948125 -15.235 22.95875 -16 24 C-16.33 24 -16.66 24 -17 24 C-17 22.35 -17 20.7 -17 19 C-15.68 18.67 -14.36 18.34 -13 18 C-13.33 16.68 -13.66 15.36 -14 14 C-12.68 14 -11.36 14 -10 14 C-9.67 12.35 -9.34 10.7 -9 9 C-8.01 9 -7.02 9 -6 9 C-5.7525 8.2575 -5.505 7.515 -5.25 6.75 C-3.90852699 3.79875938 -2.39094474 2.15185026 0 0 Z " fill="#073351" transform="translate(261,147)"/>
<path d="M0 0 C4.75 0.75 4.75 0.75 7 3 C6.34 4.65 5.68 6.3 5 8 C10.94 9.65 16.88 11.3 23 13 C19 15 19 15 16.95703125 14.72387695 C15.89548828 14.35975708 15.89548828 14.35975708 14.8125 13.98828125 C14.03132813 13.72466797 13.25015625 13.46105469 12.4453125 13.18945312 C11.63835937 12.90005859 10.83140625 12.61066406 10 12.3125 C9.19304687 12.04244141 8.38609375 11.77238281 7.5546875 11.49414062 C3.58640732 10.12226819 0.17348455 8.85441138 -3 6 C-2.21625 6.061875 -1.4325 6.12375 -0.625 6.1875 C0.24125 6.125625 1.1075 6.06375 2 6 C2.66 5.01 3.32 4.02 4 3 C2.68 2.67 1.36 2.34 0 2 C0 1.34 0 0.68 0 0 Z " fill="#41AAB9" transform="translate(280,110)"/>
<path d="M0 0 C0.99 0.66 1.98 1.32 3 2 C2.67 3.32 2.34 4.64 2 6 C1.01 6 0.02 6 -1 6 C-1 5.34 -1 4.68 -1 4 C-2.29409592 4.45142881 -3.58521059 4.91141021 -4.875 5.375 C-5.59429687 5.63023437 -6.31359375 5.88546875 -7.0546875 6.1484375 C-9.18157994 6.93877783 -9.18157994 6.93877783 -11 9 C-10.75 5.625 -10.75 5.625 -10 2 C-7.0250165 -0.5342452 -3.77519641 -0.32129331 0 0 Z " fill="#121212" transform="translate(197,340)"/>
<path d="M0 0 C0.33 0.66 0.66 1.32 1 2 C1.99 2.33 2.98 2.66 4 3 C-18.59489033 9.54413561 -18.59489033 9.54413561 -29 12 C-29 11.34 -29 10.68 -29 10 C-26.33394051 9.20624138 -23.66718833 8.41494929 -21 7.625 C-20.25621094 7.40328125 -19.51242188 7.1815625 -18.74609375 6.953125 C-13.85717622 5.5077059 -8.95385123 4.20468655 -4 3 C-4 2.34 -4 1.68 -4 1 C-2.68 0.67 -1.36 0.34 0 0 Z " fill="#06324F" transform="translate(209,110)"/>
<path d="M0 0 C0.33 0.99 0.66 1.98 1 3 C0.67 3.66 0.34 4.32 0 5 C0.99 5 1.98 5 3 5 C3 6.65 3 8.3 3 10 C1.68 10 0.36 10 -1 10 C-1.33 9.01 -1.66 8.02 -2 7 C-2.66 7 -3.32 7 -4 7 C-4.26554687 7.58265625 -4.53109375 8.1653125 -4.8046875 8.765625 C-6.03302996 11.06174228 -7.40314939 12.80356018 -9.125 14.75 C-9.93324219 15.67039063 -9.93324219 15.67039063 -10.7578125 16.609375 C-11.16773438 17.06828125 -11.57765625 17.5271875 -12 18 C-12.66 17.67 -13.32 17.34 -14 17 C-13.15695312 16.02417969 -12.31390625 15.04835937 -11.4453125 14.04296875 C-10.33845436 12.75788769 -9.23168833 11.4727273 -8.125 10.1875 C-7.56941406 9.54490234 -7.01382812 8.90230469 -6.44140625 8.24023438 C-5.90644531 7.61826172 -5.37148438 6.99628906 -4.8203125 6.35546875 C-4.32805176 5.78465576 -3.83579102 5.21384277 -3.32861328 4.62573242 C-1.81383993 2.8258536 -1.81383993 2.8258536 0 0 Z M-4 11 C-3.01 11.495 -3.01 11.495 -2 12 C-2.99 12.495 -2.99 12.495 -4 13 C-4 12.34 -4 11.68 -4 11 Z " fill="#43B0BD" transform="translate(271,138)"/>
<path d="M0 0 C2.17532857 2.17532857 2.3662254 3.10274469 3 6 C3.33 6.66 3.66 7.32 4 8 C2.24719267 7.57388649 0.49782565 7.13360733 -1.25 6.6875 C-2.22453125 6.44386719 -3.1990625 6.20023437 -4.203125 5.94921875 C-6.98975665 5.00347644 -8.77304368 3.89291287 -11 2 C-7.36534398 -0.32617985 -4.23963281 -0.31404687 0 0 Z " fill="#0B2F50" transform="translate(294,108)"/>
<path d="M0 0 C1 2 1 2 1 5 C2.32 5.66 3.64 6.32 5 7 C2.69 8.65 0.38 10.3 -2 12 C-2.66 11.01 -3.32 10.02 -4 9 C-3.01 9 -2.02 9 -1 9 C-1.33 8.34 -1.66 7.68 -2 7 C-3.32 7 -4.64 7 -6 7 C-6.33 7.66 -6.66 8.32 -7 9 C-7.99 8.34 -8.98 7.68 -10 7 C-6.7 4.69 -3.4 2.38 0 0 Z " fill="#41ACB9" transform="translate(272,221)"/>
<path d="M0 0 C-2.99686226 1.66183313 -5.69647371 2.45834143 -9.0625 3.0625 C-11.8314017 3.5663152 -14.32213764 4.10737921 -17 5 C-17 9.95 -17 14.9 -17 20 C-17.33 20 -17.66 20 -18 20 C-18.8320582 14.27959989 -19.12036664 8.77759884 -19 3 C-12.49577707 0.99134292 -6.8218683 -0.38614349 0 0 Z " fill="#43A8B6" transform="translate(200,118)"/>
<path d="M0 0 C2.125 0.9375 2.125 0.9375 4 2 C4 2.99 4 3.98 4 5 C4.639375 5.268125 5.27875 5.53625 5.9375 5.8125 C8 7 8 7 9 10 C2.25 9.125 2.25 9.125 0 8 C-0.38218767 6.34385343 -0.71395102 4.67542976 -1 3 C-1.33 2.34 -1.66 1.68 -2 1 C-1.34 0.67 -0.68 0.34 0 0 Z " fill="#3ABDC4" transform="translate(249,89)"/>
<path d="M0 0 C0.66 0 1.32 0 2 0 C1.90460938 0.58007812 1.80921875 1.16015625 1.7109375 1.7578125 C0.94026646 7.01755922 0.94026646 7.01755922 2.1875 12.125 C3 15 3 15 2.24609375 16.921875 C1.24597843 18.66423618 0.12967693 20.33871039 -1 22 C-1.33 20.68 -1.66 19.36 -2 18 C-1.34 18 -0.68 18 0 18 C-0.66 15.69 -1.32 13.38 -2 11 C-2.66 11 -3.32 11 -4 11 C-3.52269162 9.5410574 -3.04308958 8.08286504 -2.5625 6.625 C-2.29566406 5.81289062 -2.02882813 5.00078125 -1.75390625 4.1640625 C-1 2 -1 2 0 0 Z " fill="#40ADBA" transform="translate(301,179)"/>
<path d="M0 0 C1.32 0.33 2.64 0.66 4 1 C4 1.66 4 2.32 4 3 C4.556875 3.061875 5.11375 3.12375 5.6875 3.1875 C8 4 8 4 10.3125 6.375 C13.462538 9.4517813 15.91802451 10.47926403 20 12 C19.67 12.66 19.34 13.32 19 14 C14.18427336 12.68208664 11.05966534 10.76703894 7.25 7.5625 C6.30640625 6.78003906 5.3628125 5.99757812 4.390625 5.19140625 C2 3 2 3 0 0 Z " fill="#063753" transform="translate(220,214)"/>
<path d="M0 0 C0.89138672 0.09087891 0.89138672 0.09087891 1.80078125 0.18359375 C8.19710477 0.83018944 14.59681141 1.42535487 21 2 C21 5.63 21 9.26 21 13 C20.67 13 20.34 13 20 13 C20 10.36 20 7.72 20 5 C18.9275 4.896875 17.855 4.79375 16.75 4.6875 C11.04712923 3.9900266 5.54427239 2.46923218 0 1 C0 0.67 0 0.34 0 0 Z " fill="#093F5A" transform="translate(299,116)"/>
<path d="M0 0 C0.35729936 1.32711192 0.68325425 2.66262906 1 4 C1.37125 5.5159375 1.37125 5.5159375 1.75 7.0625 C1.8325 8.031875 1.915 9.00125 2 10 C0.625 11.5625 0.625 11.5625 -1 13 C-1.72197162 15.60611077 -1.72197162 15.60611077 -2 18 C-2.99 17.67 -3.98 17.34 -5 17 C-1.92482916 5.47835991 -1.92482916 5.47835991 0 0 Z " fill="#09334F" transform="translate(313,167)"/>
<path d="M0 0 C0.99 0 1.98 0 3 0 C3.24911914 8.58077055 2.69882188 16.58173087 1 25 C0.67 25 0.34 25 0 25 C0 16.75 0 8.5 0 0 Z " fill="#063955" transform="translate(308,127)"/>
<path d="M0 0 C3.80666984 1.44390925 5.26602582 3.34952803 7 7 C6.67 7.66 6.34 8.32 6 9 C3.03 8.505 3.03 8.505 0 8 C0 5.36 0 2.72 0 0 Z " fill="#3ABDC6" transform="translate(201,193)"/>
<path d="M0 0 C0.33 0 0.66 0 1 0 C1.33868777 2.20751848 1.67071689 4.41605911 2 6.625 C2.185625 7.85476562 2.37125 9.08453125 2.5625 10.3515625 C2.95402516 13.6166027 3.08080924 16.71712451 3 20 C2.01 19.34 1.02 18.68 0 18 C0.33 16.02 0.66 14.04 1 12 C0.34 12 -0.32 12 -1 12 C-1.08159574 7.83861737 -0.98248524 4.0527516 0 0 Z " fill="#0A3D59" transform="translate(182,140)"/>
<path d="M0 0 C3.79303725 1.00193437 6.71536341 1.81024227 10 4 C10 4.66 10 5.32 10 6 C11.65 6.33 13.3 6.66 15 7 C15.33 7.99 15.66 8.98 16 10 C12.06342758 8.56786488 8.71068644 6.69667846 5.1875 4.4375 C4.21167969 3.81746094 3.23585938 3.19742188 2.23046875 2.55859375 C1.49441406 2.04425781 0.75835937 1.52992187 0 1 C0 0.67 0 0.34 0 0 Z " fill="#073550" transform="translate(264,99)"/>
<path d="M0 0 C0.33 0.66 0.66 1.32 1 2 C0.09232898 3.44319692 -0.82656106 4.87934106 -1.75 6.3125 C-2.26046875 7.11300781 -2.7709375 7.91351563 -3.296875 8.73828125 C-5.00277761 11.00368861 -6.65808145 12.42684167 -9 14 C-9.66 13.67 -10.32 13.34 -11 13 C-10.06027344 11.96939453 -10.06027344 11.96939453 -9.1015625 10.91796875 C-8.28429687 10.01691406 -7.46703125 9.11585938 -6.625 8.1875 C-5.81289063 7.29417969 -5.00078125 6.40085938 -4.1640625 5.48046875 C-1.90927093 3.00367326 -1.90927093 3.00367326 0 0 Z " fill="#083855" transform="translate(263,167)"/>
<path d="M0 0 C2.64 0 5.28 0 8 0 C8 1.32 8 2.64 8 4 C5.36 4 2.72 4 0 4 C0 2.68 0 1.36 0 0 Z " fill="#060605" transform="translate(308,347)"/>
<path d="M0 0 C0.59167969 0.2165625 1.18335938 0.433125 1.79296875 0.65625 C7.73660902 2.77760794 7.73660902 2.77760794 14 3 C14.33 3.99 14.66 4.98 15 6 C12.03 6 9.06 6 6 6 C6 5.01 6 4.02 6 3 C4.35 3 2.7 3 1 3 C0.67 2.01 0.34 1.02 0 0 Z " fill="#072F4D" transform="translate(240,238)"/>
<path d="M0 0 C3.63 1.98 7.26 3.96 11 6 C10.01 7.485 10.01 7.485 9 9 C7.68 9 6.36 9 5 9 C3 5.25 3 5.25 3 3 C2.01 2.67 1.02 2.34 0 2 C0 1.34 0 0.68 0 0 Z " fill="#0B3150" transform="translate(225,229)"/>
<path d="M0 0 C1.9375 0.75 1.9375 0.75 4 2 C4.75 4.125 4.75 4.125 5 6 C6.32 6.33 7.64 6.66 9 7 C9.68707555 9.49064888 10 11.37886292 10 14 C8.51551984 12.23361856 7.03758035 10.46173862 5.5625 8.6875 C4.73878906 7.70136719 3.91507813 6.71523437 3.06640625 5.69921875 C1 3 1 3 0 0 Z " fill="#44AFBC" transform="translate(202,203)"/>
<path d="M0 0 C4.455 0.99 4.455 0.99 9 2 C9 5.3 9 8.6 9 12 C8.67 12 8.34 12 8 12 C8 10.35 8 8.7 8 7 C7.01 6.67 6.02 6.34 5 6 C5 5.01 5 4.02 5 3 C3.35 2.67 1.7 2.34 0 2 C0 1.34 0 0.68 0 0 Z " fill="#4AB2C0" transform="translate(310,119)"/>
<path d="M0 0 C0.928125 0.0825 1.85625 0.165 2.8125 0.25 C0.8325 2.56 -1.1475 4.87 -3.1875 7.25 C-4.1775 6.26 -5.1675 5.27 -6.1875 4.25 C-4.36434338 1.00883268 -3.82500054 0.30000004 0 0 Z " fill="#40B2BF" transform="translate(284.1875,217.75)"/>
<path d="M0 0 C0.33 1.32 0.66 2.64 1 4 C2.32 4.33 3.64 4.66 5 5 C3.02 5.99 3.02 5.99 1 7 C1 7.66 1 8.32 1 9 C0.34 9 -0.32 9 -1 9 C-1.33 8.34 -1.66 7.68 -2 7 C-2.99 7 -3.98 7 -5 7 C-3.35 4.69 -1.7 2.38 0 0 Z " fill="#0C3152" transform="translate(296,206)"/>
<path d="M0 0 C0.99 0.33 1.98 0.66 3 1 C3.33 2.65 3.66 4.3 4 6 C4.99 6.33 5.98 6.66 7 7 C6.34 7.66 5.68 8.32 5 9 C2.36 6.69 -0.28 4.38 -3 2 C-2.01 1.34 -1.02 0.68 0 0 Z " fill="#093352" transform="translate(233,169)"/>
<path d="M0 0 C1.65 0 3.3 0 5 0 C5.33 0.99 5.66 1.98 6 3 C6.66 3.33 7.32 3.66 8 4 C8.33 4.66 8.66 5.32 9 6 C8.34 6 7.68 6 7 6 C6.67 6.66 6.34 7.32 6 8 C4.99403703 7.0479279 3.99538437 6.08812654 3 5.125 C2.443125 4.59132812 1.88625 4.05765625 1.3125 3.5078125 C0 2 0 2 0 0 Z " fill="#1C2E49" transform="translate(206,222)"/>
<path d="M0 0 C2.31 0 4.62 0 7 0 C7 1.32 7 2.64 7 4 C4.69 4 2.38 4 0 4 C0 2.68 0 1.36 0 0 Z " fill="#050505" transform="translate(166,347)"/>
<path d="M0 0 C2.93200474 2.85276137 5.64315404 5.65079784 8 9 C7.01 9.495 7.01 9.495 6 10 C5.67 9.34 5.34 8.68 5 8 C3.02 8.33 1.04 8.66 -1 9 C-0.649375 8.2575 -0.29875 7.515 0.0625 6.75 C1.04509293 3.8677274 1.0326802 2.78823655 0 0 Z " fill="#0C3955" transform="translate(207,211)"/>
<path d="M0 0 C3.26008643 3.16952847 6.22237877 6.39937989 9 10 C6.83125748 9.49396008 5.00032373 9.00016187 3 8 C2.71125 7.34 2.4225 6.68 2.125 6 C1.1765144 3.79994195 1.1765144 3.79994195 -1.125 3.25 C-2.053125 3.12625 -2.053125 3.12625 -3 3 C-2.01 2.01 -1.02 1.02 0 0 Z " fill="#47ACBB" transform="translate(250,86)"/>
<path d="M0 0 C1.25955231 3.77865693 0.48087189 5.03411786 -0.9375 8.6875 C-1.31777344 9.68136719 -1.69804687 10.67523438 -2.08984375 11.69921875 C-2.39019531 12.45847656 -2.69054687 13.21773437 -3 14 C-3.66 14 -4.32 14 -5 14 C-4.52963758 9.20230335 -3.73066236 5.98221594 -1 2 C-0.67 1.34 -0.34 0.68 0 0 Z " fill="#053550" transform="translate(304,167)"/>
<path d="M0 0 C0 1.32 0 2.64 0 4 C-2.8125 4.625 -2.8125 4.625 -6 5 C-6.99 4.34 -7.98 3.68 -9 3 C-2.25 0 -2.25 0 0 0 Z " fill="#0A3354" transform="translate(263,237)"/>
<path d="M0 0 C0.66 0 1.32 0 2 0 C2.375 2.1875 2.375 2.1875 2 5 C0.16038352 6.99022836 -1.79186148 8.38989899 -4 10 C-4.66 9.67 -5.32 9.34 -6 9 C-4.73046875 7.53515625 -3.4609375 6.0703125 -2.19140625 4.60546875 C-0.79128769 2.89287029 -0.79128769 2.89287029 0 0 Z " fill="#06334E" transform="translate(290,133)"/>
<path d="M0 0 C4.29 1.32 8.58 2.64 13 4 C12.34 4.66 11.68 5.32 11 6 C6.86736741 5.65561395 3.61891796 3.93570031 0 2 C0 1.34 0 0.68 0 0 Z " fill="#192C42" transform="translate(288,104)"/>
<path d="M0 0 C0 3.19219704 -0.23605791 4.39608549 -2 7 C-4.4375 8.3125 -4.4375 8.3125 -7 9 C-7.99 8.67 -8.98 8.34 -10 8 C-6.7 5.36 -3.4 2.72 0 0 Z " fill="#063753" transform="translate(246,101)"/>
<path d="M0 0 C2.46800047 1.15173355 4.04783565 2.04783565 6 4 C4.68 4.33 3.36 4.66 2 5 C2 4.34 2 3.68 2 3 C0.68 3.99 -0.64 4.98 -2 6 C-2.66 5.67 -3.32 5.34 -4 5 C-2.68 3.35 -1.36 1.7 0 0 Z " fill="#44ACB9" transform="translate(221,164)"/>
<path d="M0 0 C0.33 0.66 0.66 1.32 1 2 C0.06558465 3.27310312 -0.87267111 4.543388 -1.8125 5.8125 C-2.33457031 6.52019531 -2.85664063 7.22789062 -3.39453125 7.95703125 C-4.83128877 9.78531393 -6.31815763 11.39896688 -8 13 C-8.66 12.67 -9.32 12.34 -10 12 C-9.44570313 11.38511719 -8.89140625 10.77023438 -8.3203125 10.13671875 C-7.59585937 9.32847656 -6.87140625 8.52023438 -6.125 7.6875 C-5.40570313 6.88699219 -4.68640625 6.08648437 -3.9453125 5.26171875 C-1.88394498 2.95810917 -1.88394498 2.95810917 0 0 Z " fill="#063B57" transform="translate(283,143)"/>
<path d="M0 0 C1.57554035 2.88628401 2.46276373 5.53342384 3.125 8.75 C3.29257813 9.54921875 3.46015625 10.3484375 3.6328125 11.171875 C3.81457031 12.07679688 3.81457031 12.07679688 4 13 C3.01 12.67 2.02 12.34 1 12 C0.03929566 9.11788698 -0.10581883 7.30149956 -0.0625 4.3125 C-0.05347656 3.50425781 -0.04445312 2.69601563 -0.03515625 1.86328125 C-0.02355469 1.24839844 -0.01195312 0.63351563 0 0 Z " fill="#093B59" transform="translate(186,164)"/>
<path d="M0 0 C1.875 0.3125 1.875 0.3125 4 1 C4.66 1.99 5.32 2.98 6 4 C4.63875 3.9690625 4.63875 3.9690625 3.25 3.9375 C0.57327412 3.9889755 -1.46988052 4.2215017 -4 5 C-2.68 3.35 -1.36 1.7 0 0 Z " fill="#45AEBB" transform="translate(280,128)"/>
<path d="M0 0 C0.66 0.66 1.32 1.32 2 2 C-1.01887244 5.48331435 -3.56909529 6.79157144 -8 8 C-8.33 7.34 -8.66 6.68 -9 6 C-6.03 4.02 -3.06 2.04 0 0 Z " fill="#142440" transform="translate(232,92)"/>
<path d="M0 0 C2.475 0.99 2.475 0.99 5 2 C5 2.99 5 3.98 5 5 C4.01 5.495 4.01 5.495 3 6 C2.01 5.67 1.02 5.34 0 5 C0 3.35 0 1.7 0 0 Z " fill="#37BEC4" transform="translate(230,226)"/>
<path d="M0 0 C0.99 0.33 1.98 0.66 3 1 C3.765625 2.70703125 3.765625 2.70703125 4.25 4.8125 C4.50523437 5.84310547 4.50523437 5.84310547 4.765625 6.89453125 C5.02170666 9.19499821 4.69015367 10.80629727 4 13 C3.32942113 11.2097939 2.6636531 9.41778511 2 7.625 C1.62875 6.62726563 1.2575 5.62953125 0.875 4.6015625 C0 2 0 2 0 0 Z " fill="#093A56" transform="translate(196,170)"/>
<path d="M0 0 C3.16115776 1.36983503 3.9927092 1.9890638 6 5 C5.01 4.67 4.02 4.34 3 4 C2.34 4.66 1.68 5.32 1 6 C0.01 4.68 -0.98 3.36 -2 2 C-1.34 1.34 -0.68 0.68 0 0 Z " fill="#0A3857" transform="translate(249,98)"/>
<path d="M0 0 C-2.48952921 2.66735273 -4.63408134 4.55746343 -8 6 C-8 5.01 -8 4.02 -8 3 C-7.01 3 -6.02 3 -5 3 C-5 2.34 -5 1.68 -5 1 C-5.66 0.67 -6.32 0.34 -7 0 C-4.3333581 -1.33332095 -2.83319697 -0.67102033 0 0 Z " fill="#0A3050" transform="translate(233,101)"/>
<path d="M0 0 C0.66 0.33 1.32 0.66 2 1 C-0.97 4.96 -0.97 4.96 -4 9 C-4.66 8.01 -5.32 7.02 -6 6 C-4 4 -2 2 0 0 Z " fill="#04314B" transform="translate(289,200)"/>
<path d="M0 0 C2.60608273 2.5162178 4.89381685 5.05134359 7 8 C6.67 8.66 6.34 9.32 6 10 C1.21621622 6.56548857 1.21621622 6.56548857 0.1875 3.875 C0 2 0 2 0 0 Z " fill="#42AAB9" transform="translate(207,198)"/>
<path d="M0 0 C1.32 0.66 2.64 1.32 4 2 C4.99 1.34 5.98 0.68 7 0 C6.67 1.32 6.34 2.64 6 4 C4.02 4 2.04 4 0 4 C-0.33 3.34 -0.66 2.68 -1 2 C-0.67 1.34 -0.34 0.68 0 0 Z " fill="#42A9B7" transform="translate(234,175)"/>
<path d="M0 0 C-4.22949995 2.41685712 -7.12335991 3.34833144 -12 3 C-11 1 -11 1 -7.6875 -0.1875 C-4.42437937 -0.90649268 -3.00717118 -1.20286847 0 0 Z " fill="#083D58" transform="translate(208,124)"/>
<path d="M0 0 C1.12588014 0.95729916 2.2506715 1.91587895 3.375 2.875 C4.00148437 3.40867188 4.62796875 3.94234375 5.2734375 4.4921875 C6.55836651 5.61432007 7.79371975 6.79371975 9 8 C4.66314164 8 3.0556673 5.91985986 0 3 C0 2.01 0 1.02 0 0 Z " fill="#063853" transform="translate(214,173)"/>
<path d="M0 0 C1.65 1.32 3.3 2.64 5 4 C2.64561267 5.42944945 1.51967567 6.08661261 -1.25 5.625 C-1.8275 5.41875 -2.405 5.2125 -3 5 C-2 4 -1 3 0 2 C0 1.34 0 0.68 0 0 Z " fill="#09314E" transform="translate(220,225)"/>
<path d="M0 0 C0.66 0.33 1.32 0.66 2 1 C-1.465 3.97 -1.465 3.97 -5 7 C-5 5.68 -5 4.36 -5 3 C-2.625 1.1875 -2.625 1.1875 0 0 Z " fill="#042D49" transform="translate(243,91)"/>
<path d="M0 0 C0 0.66 0 1.32 0 2 C-3.465 3.485 -3.465 3.485 -7 5 C-7.33 4.01 -7.66 3.02 -8 2 C-5.09399739 0.74335022 -3.20395416 0 0 0 Z " fill="#41ADB9" transform="translate(267,233)"/>
<path d="M0 0 C0.99 0.33 1.98 0.66 3 1 C1.35 2.65 -0.3 4.3 -2 6 C-2 4.35 -2 2.7 -2 1 C-1.34 0.67 -0.68 0.34 0 0 Z " fill="#0A2E4F" transform="translate(278,212)"/>
<path d="M0 0 C0.99 0 1.98 0 3 0 C2.01 2.97 1.02 5.94 0 9 C-0.95904856 5.16380575 -0.91892116 3.67568464 0 0 Z " fill="#42ACBC" transform="translate(305,183)"/>
<path d="M0 0 C0.33 0.66 0.66 1.32 1 2 C-0.65 4.31 -2.3 6.62 -4 9 C-4.66 8.67 -5.32 8.34 -6 8 C-4.02 5.36 -2.04 2.72 0 0 Z " fill="#083E59" transform="translate(272,156)"/>
<path d="M0 0 C1.65 0.33 3.3 0.66 5 1 C4.34 2.32 3.68 3.64 3 5 C1.68 4.34 0.36 3.68 -1 3 C-0.67 2.01 -0.34 1.02 0 0 Z " fill="#39BDC5" transform="translate(280,112)"/>
</svg>
