<?xml version="1.0" encoding="UTF-8"?>
<svg version="1.1" viewBox="0 0 1600 1600" width="1280" height="1280" xmlns="http://www.w3.org/2000/svg">
<path transform="translate(0)" d="m0 0h1600v1600h-1600z" fill="#FDFDFD"/>
<path transform="translate(1372,259)" d="m0 0 78 1 7 5 6 6 1 23v88l1 70v77l-1 41-1 208-1 133v295l-6 9-7 2-16 1-681 1h-113l7 11 4 5 4 7 8 12 7 10 6 8 5 9 14 20 5 9 4 5 4 8v2h2l4 8-1 4-40-13-57-18-37-11-7-1-2 11-5 52-5 58-2 19-2 6-4-2-7-10-26-39-14-22-16-23-14-21-29-43-14-21-7-10-3-2-5 1-12 17-9 13-102 153-7 8h-2l-2-10-5-50-5-57-3-27-4-1-16 4-16 5-17 6-17 5-29 9-34 11-10 2 2-5 12-21 14-20 20-30 11-17 34-51 11-17 4-9-7-8-9-11-11-17-10-18-10-21-7-20-6-28-3-30v-23l2-22 5-28 4-15 8-22 11-22 6-10 10-14 7-9 6-7v-449l1-92 1-27 2-10 3-2 16-1z" fill="#C3D2E0"/>
<path transform="translate(396,753)" d="m0 0h37l28 4 26 7 17 6 13 4 23 12 12 8 16 12 14 12 13 12 11 12 7 10 8 11 9 12 8 16 8 17 8 25 7 25 1 5 1 14v32l-3 37-4 10-5 21-4 15-6 11-10 19-8 14-14 18-4 5 1 2 3 1 2 12 4 6 3 3v2l3 1 3 8 5 9v2h2l4 6 10 3-1 3-5 1 5 9 6 8 4 7 8 12 7 10 6 8 5 9 14 20 5 9 4 5 4 8v2h2l4 8-1 4-40-13-57-18-37-11-7-1-2 11-5 52-5 58-2 19-2 6-4-2-7-10-26-39-14-22-16-23-14-21-29-43-14-21-7-10-3-2-5 1-12 17-9 13-102 153-7 8h-2l-2-10-5-50-5-57-3-27-4-1-16 4-16 5-17 6-17 5-29 9-34 11-10 2 2-5 12-21 14-20 20-30 11-17 34-51 11-17 4-9-7-8-9-11-11-17-10-18-10-21-7-20-6-28-3-30v-23l2-22 5-28 4-15 8-22 11-22 6-10 10-14 7-9 11-13 5-4 4-5 8-7 10-8 11-8 11-7 21-14 13-6 29-11 27-8 14-3z" fill="#E7B731"/>
<path transform="translate(1372,259)" d="m0 0 78 1 7 5 6 6 1 23v88l1 70v77l-1 41-1 208-1 133v295l-6 9-6-1-108 1h-216l-395-1h-71l-5-2-1-2-3-1-12-1-5-3v-8l3-1 2-5 8-3 11-1h706l43-1 12-2 6-5 2-8v-847l-1-20-3-5-6-4-17-2h-1117l-9 3-5 6-2 6-1 11v487l10-7 15-10 6-3 2 1-11 7-13 9-6 4-18 14-9 8-5 5-6 5-1-34v-413l1-92 1-27 2-10 3-2 16-1z" fill="#C4D3E1"/>
<path transform="translate(283,292)" d="m0 0h1117l17 2 6 4 3 3 1 3 1 20v847l-3 9-6 5-12 2-43 1h-707l-13 2-5 1-2 6-2 1v7l4 2 12 1 6 2 3 3h71l421 1h190l113-1-3 3-3 1-16 1-681 1h-113l3-2h2l-1-3-9-3-3-4v-2h-2l-8-15-1-4-5-5-4-5-1-2-2-12-2-1 1-4 2-2h3v-2l5-5 6-8 5-5 10-15 9-17 5-12 1 3-7 18-8 15-8 13-11 14-1 2h705l49-1 16-3 4-3 2-12 1-77v-126l1-163v-416l-1-17-3-7-4-4-7-3-6-1h-1041l-21 1-7 3-5 6-3 8v369l1 75-5 4-9 5-12 8-8 5v-488l1-11 4-9 6-5z" fill="#3289CF"/>
<path transform="translate(665,623)" d="m0 0h368l106 1 46 1 16 2 6 3 8 8 6 12 3 13v22l-4 17-6 11-8 8-8 3-11 1-152 1h-402l-125-1-9-1-10-6-6-7-6-13-2-7-1-8v-17l3-14 8-16 8-7 8-3 13-1 44-1z" fill="#2851CC"/>
<path transform="translate(433,847)" d="m0 0h13l2 1 1 21h21l31 1 13 1 3 1v13l-5 12-9 8-11 6-4 1h-39l1 66 26 4 10 2 10 6 11 7 9 10 8 14 3 16 1 10v20l-2 14-4 13-8 13-9 10-12 9-15 4-14 2-15 1-1 4-1 15-3 1h-16l-4-2-1-17-3-1h-9l-1 2-1 15-1 3-14 1-9-3-1-18-42-1h-11l-13-2-5-3-2-4v-6l6-10 4-5 3-5 10-6 7-2h42l1-1 1-66-14-1-14-3-16-8-9-7-8-11-6-10-5-16-2-11v-22l6-24 6-10 12-14 10-6 15-6 13-4 12-2 1-18 1-1h22l1 1 1 18 14 1v-19l1-1z" fill="#E3E6E8"/>
<path transform="translate(605,1159)" d="m0 0 1 2 3 1 2 12 4 6 3 3v2l3 1 3 8 5 9v2h2l4 6 10 3-1 3-5 1 5 9 6 8 4 7 8 12 7 10 6 8 5 9 14 20 5 9 4 5 4 8v2h2l4 8-1 4-40-13-57-18-37-11-7-1-2 11-5 52-5 58-2 19-2 6-4-2-7-10-26-39-14-22-16-23-14-21-29-43-14-21-7-10-3-3 33-3 17-3 12-3 29-10 25-12 16-10 12-9 10-8 11-10 5-5z" fill="#41B95A"/>
<path transform="translate(234,1167)" d="m0 0 4 2 16 16 8 7 15 12 15 9 14 7 7 4 22 9 36 9 13 2 24 1 9 1-6 9-10 14-108 162-7 8h-2l-2-10-5-50-5-57-3-27-4-1-16 4-16 5-17 6-17 5-29 9-34 11-10 2 2-5 12-21 14-20 20-30 11-17 34-51 11-17z" fill="#40B95A"/>
<path transform="translate(755,1033)" d="m0 0h569l15 1 4 6 1 8v13l-2 9-3 3-7 1v2l-20 2-95 1h-343l-91-1-30-1-11-2-4-2-4-11v-21l4-5 7-2z" fill="#E8B731"/>
<path transform="translate(782,894)" d="m0 0h535l16 4 8 5 3 6-3 16-4 7v3l-9 2-27 1-248 1h-55l-194-1-49-1-11-2-3-1v-2l-4-2-4-7v-11l5-12 4-2 12-2 2-1z" fill="#E7B731"/>
<path transform="translate(770,821)" d="m0 0 61 1h482l16 2 7 3 5 5 3 10-1 11-4 6-12 6-5 1h-552l-23-2-8-4-6-7-1-9 7-17 2-2 6-2z" fill="#E7B732"/>
<path transform="translate(1028,962)" d="m0 0h129l135 1 31 1 11 2 6 8 4 6 1 10-4 8-10 7-9 2h-462l-33 1-73-2-8-2-8-5-7-8-1-2v-8l8-11 7-4 7-3z" fill="#E7B731"/>
<path transform="translate(666,379)" d="m0 0 16 1 16 4 12 5 13 10 7 7 7 10 7 15 4 14 1 7v26l-3 15-4 12-7 14-12 14-9 8-16 8-16 5-7 1h-19l-15-3-14-5-14-9-13-13-9-14-5-13-3-14-1-15 1-16 4-18 5-12 10-14 11-12 14-9 12-5 15-3z" fill="#2951CD"/>
<path transform="translate(995,382)" d="m0 0h71l18 2 15 4 11 5 11 7 7 7 10 15 5 13 3 17v23l-3 16-5 15-9 14-13 13-15 10-21 7-13 2h-72l-1-4z" fill="#2951CC"/>
<path transform="translate(423,382)" d="m0 0h72l15 2 12 4 10 6 8 9 4 8 1 3v17l-4 11-9 11-5 5 2 4 9 7 5 5 6 9 3 10v15l-4 13-6 10-8 8-11 7-12 4-18 2h-70l-1-4v-32z" fill="#2951CC"/>
<path transform="translate(790,382)" d="m0 0h45l10 15 10 16 14 21 9 14 12 17 10 14 2 1v-89l1-9h41v170l-17 1h-14l-12-2-10-14-12-19-22-33-17-25-6-8h-1l-1 29-1 71h-41l-1-169z" fill="#2951CC"/>
<path transform="translate(1241,379)" d="m0 0h13l17 2 17 4 2 1 1 15v28l-11-6-12-5-9-2h-21l-11 3-2 4v10l8 7 25 12 16 8 12 11 6 8 5 10 1 5v16l-4 13-7 11-4 5-10 7-12 5-12 3-10 1h-17l-17-2-19-5-6-3-1-1v-45l4 2 7 6 16 8 13 3 10 1 15-3 6-5 1-2v-8l-1-3-4-2-11-7-26-12-11-7-8-8-7-11-4-11v-16l4-13 7-12 9-8 16-8 16-3z" fill="#2951CC"/>
<path transform="translate(652,1091)" d="m0 0 1 3-7 18-8 15-8 13-11 14-1 2h277l142 1v1l-75 1-299 1-29 1-7 1h-10v4l30 1 676 1v1l-9 1-608 1-72 1-7 2-6 1v7l8 1 21 1 617 1 18 1v1l-628 1-13 2-5 1-2 6-2 1v7l4 2 12 1 6 2 3 3h71l421 1h190l113-1-3 3-3 1-16 1-681 1h-113l3-2h2l-1-3-9-3-3-4v-2h-2l-8-15-1-4-5-5-4-5-1-2-2-12-2-1 1-4 2-2h3v-2l5-5 6-8 5-5 10-15 9-17z" fill="#254BC6"/>
<path transform="translate(659,418)" d="m0 0h16l9 3 9 7 7 11 3 11 1 9v13l-3 19-4 9-4 6-11 7-8 3h-16l-11-4-9-8-8-16-3-17v-9l2-15 4-9 6-9 8-7 7-3z" fill="#C3D2E0"/>
<path transform="translate(657,1187)" d="m0 0h425l257 1-4 2-5 1h-12l-7 1h-26l-5 1-5-1h-19l-6-1h-26l-2 1h-8v-2l-4 1h-50l-3 1-6-1-5 1-4-1h-32l-5 1h-11l-2-1-10 1h-21l-5-1-4 1h-6l-4-2-9 2h-14l-4 1-9-1h-9l-5 1-19 1-5-1-11 1h-36l-5 1-17-1-2-1-1 2h-4v-2l-3 1-17 1-6-1-10 1-6-1-2-1v2h-13l-21 1h-18l-16 2-17 4-11 2 3 3 7 1-1 2 3 3-104 1-5-2-1-2-3-1-12-1-5-3v-8l3-1 2-5 8-3z" fill="#8DBAD5"/>
<path transform="translate(1036,419)" d="m0 0h28l11 3 10 5 5 4 7 10 3 8 1 6v20l-2 11-4 8-7 9-8 6-8 4-14 3h-19l-1-1v-90l1-4h-3z" fill="#C3D2E0"/>
<path transform="translate(1186,1175)" d="m0 0 9 1 9-1 4 1 8-1h22l11 1h42l2 1h109l8-2h6l5 3 1 3h-2v2l-17 2h-497l-162-1 1-2 4-2 17-1 5-1 23-1 41-1 70 1h118l23-1h39l3 1h13l21-1h18 4 39z" fill="#4698D8"/>
<path transform="translate(396,753)" d="m0 0h37l28 4 26 7 17 6 13 4 23 12 12 8 16 12 14 12 13 12 11 12 7 10 8 11 9 12 8 16 8 17 8 25 7 25 1 5 1 14v32l-3 37-4 10-5 21-4 15-6 11-10 19-8 14-14 18-4 4-3 5-6 5 3-12 6-8 6-2 3-5-4-2 2-5 3-5 2-3h2l2-4 7-10 7-11 9-19 5-19 4-9 5-16 1-6 1-25v-21l-1-6v-18l-6-24-6-20-7-18-5-9-8-16-6-8-6-5-9-15-9-10-7-8-11-9-11-10-9-5-1-3h-2v-2l-4-2-9-6-5-2-9-1v-2l-5-1-6-3-4-4-8-1h-7l-12-3-6-3-6-5h-16l-15-2-14-1h-24l-21 1h-12l-2-1h-7l-14 4-20 8-8 2-16 8-6 5-9 4-13 9-11 8-12 8-15 14-5 5-7 11-8 8-5 9-5 5-4 6-4 15-8 12-8 28-3 7-2 5-1 16-3 9-1 22-1 5v9l1 8 1 20 4 21 2 3 3 16 4 6v2h2l5 12 4 10 1 3h2l6 10 2 1 1 3 3 3 4 9 4 5 3 5 2 5h2v2h3l4 5v2h2l-1 10 1 4-7-6-11-13-9-12-14-24-12-25-7-20-6-28-3-30v-23l2-22 5-28 4-15 8-22 11-22 6-10 10-14 7-9 11-13 5-4 4-5 8-7 10-8 11-8 11-7 21-14 13-6 29-11 27-8 14-3z" fill="#DCB85B"/>
<path transform="translate(334,322)" d="m0 0h1041l9 2 7 4 4 11v128l-2-1-2-9-1-63-1-26v-17l-2-12-4-6-7-3-6-1-27-2-16-1h-25l-15-1-13 1-5-1-2 1-6-1-5 1h-7l-10-1h-15l-18 1h-50l-10-1h-186l-6 1h-39l-18 1h-21l-12-2h-12l-9 1-19-1h-50l-8 1-4-1-9 1h-62l-18-1-25 1h-19l-13-1h-34l-14 1h-62l-16 1-64 1-17 1-42 2-54 1v2l-4 4-6 13-3 13-2 4-1-27 4-10 6-6 6-2z" fill="#D6DEE5"/>
<path transform="translate(1391,1154)" d="m0 0h3v8l-3 2-23 2-35 1h-642l3-2 17-1 20-3 31-1h228l3-1h10l5 1 2-1h10l7 1 15-1h26l11 1 14-1 7 1 12-1h27l5 1 2-1 4 1 1-1h204l21-1 12-2z" fill="#4698D8"/>
<path transform="translate(942,293)" d="m0 0h382l20 1h17l5 1h5l2 1 8-1 22 4 4 4-12 1h-13l-15-1-26 2-3-1-4 1h-11l-5-1-1 1h-62l-4-2v2l-11-1h-19-3-30l-2 1-7-2v2h-12l-4-1-7 1h-9l-7-2v2h-9-3l-7-1-2 1-13-1-190-1-13-1-2-2-8-1v-1l8-1 1-2 4 1 2 1 1-2h8l3-1z" fill="#4799D9"/>
<path transform="translate(605,1159)" d="m0 0 1 2 3 1 2 12 4 6 3 3v2l3 1 3 8 1 4-3-3-8-10-6 1h-3l-7 3-4 8-4 3-3 4-5 5-4 2-4 4-6 3h-2v2l-9 6-4 7-7 4-8-3h-7l-6 4-2 5-11 6-4 4-11 4-21 4-8 5-5 1-3 3h-6l2 7-1 4-8-12-7-9-5-6h-3l11 13 10 15 8 13 2 6h2l1 5 6 10-1 3-29-44-11-16-7-10-3-3 33-3 17-3 12-3 29-10 25-12 16-10 12-9 10-8 11-10 5-5z" fill="#44A75E"/>
<path transform="translate(755,1033)" d="m0 0h569l15 1 4 6 1 8v13l-2 9-3 3-7 1v2l-20 2-95 1h-343l-91-1-30-1-11-2-4-2-4-11v-21l4-5 7-2zm24 2-26 2-4 1-6-1-7 3-1 3 1 20 3 5 1 1h12l6 2 13 1 26 1 104 2h326l41-1h28l20-1 18-4 4-3 2-5 2-4-3-3-1-7 1-3-3-7-5-2z" fill="#DCB85B"/>
<path transform="translate(352,293)" d="m0 0h255l31 1 1 2 12 2v1l-7 2h-2l-6 1-9 1-22 1-5-1v2l-10-1-3 1-1-1h-74l-2 1-9-1-7-1-1 2-7-2v2h-2v-2h-8l-1 2-2-1h-6l-2 1-7-1-8-1-1 2h-34l-104 1h-29v-4h2l1-3 12-4 26-1 5 2 1-2z" fill="#4698D8"/>
<path transform="translate(621,1187)" d="m0 0h36v1l-13 2-5 1-2 6-2 1v7l4 2 12 1 6 2 3 3h71l421 1h190l113-1-3 3-3 1-16 1-681 1h-113l3-2h2l-1-3-9-3-3-4v-2h-2l-8-15z" fill="#2A57CD"/>
<path transform="translate(839,282)" d="m0 0 16 1h11l17-1 2 1h35l6-1h179l5 1 4-1 4 1h8l7-1h153l2 1h75l21-1 19 1 6 1-1 3h-2v2h3v3l-9-1-7-3h-7l-1 3-142-1 3-4-7-1h-22l-9 1h-6l-1 2h25l4 2h-141l1-2-3-2h-28l-1 2 3 1v1l-139 1h-54l-18-1 1-2 8-2 8 1v-1l-25-1z" fill="#E3E6E8"/>
<path transform="translate(770,821)" d="m0 0 61 1h482l16 2 7 3 5 5 3 10-1 11-2 2v-16l-3-8-4-2h-80l-42-2h-16l-59 1h-61l-30-1h-18l-11 1h-32l-11-1-18 1-14-1h-105l-68 2-16 2-13-1-1 6-4 7v9l4 5-1 2-5-6-1-9 7-17 2-2 6-2z" fill="#DDB85B"/>
<path transform="translate(1389,1153)" d="m0 0 3 1-7 4-9 1-21 1h-204l-2 1-4-1-2 1-4-1h-16l-11-1-1 2-1-1-13 1-5-1-14 1-10-1h-26l-16 1-7-1h-9l-2 1-11-1-6-1-1 2h-234l-25 1-12 2-25 2 629 1v1h-676l-30-1-1-3 1-2 13-1 8-1 25-1 299-1-10-1v-1h371l49-1z" fill="#3289CF"/>
<path transform="translate(656,639)" d="m0 0h28l10 2 7 4 4 7v13l-7 9-3 3 17 25 2 5h-20l-7-10-8-13-5-1v23l-1 1h-17l-1-1v-66z" fill="#E1E5E8"/>
<path transform="translate(381,282)" d="m0 0h274l24 1v1l-8 1h-15v3h36l1-2-5-1v-2h48l13-1h84l6 1v1l-36 1-5 1-7-1-4 1 8 1 2 2v-2l11 1v-1h11v2h13v1h-199l2-3v-2l-14 1v4h-102v-3l-1 1v2h-12l1-4h-7l-8-1-11 2-6-2-11 2-1 1 6 1v1h-133l4-3 14-1-15-2v-1z" fill="#E3E6E8"/>
<path transform="translate(1453,263)" d="m0 0 4 2 6 6 1 23v88l1 70v77l-1 41-1 208-1 133h-1v-219l-1-62-1-41v-40l-1-27-1-20h-2l-1-25v-51h2l-1-51v-12l1-10h2l-1-6 1-6v-23l-1-17v-27l-3-9z" fill="#E4E7E9"/>
<path transform="translate(234,1167)" d="m0 0 4 2 16 16 8 7 15 12 15 9 14 7 7 4 22 9 36 9 13 2 24 1 9 1-6 9-10 14-110 165-3-1 4-5 1-3h2l2-6 18-27 13-20 8-11 7-11 16-25 16-24 10-17 6-8-2-4h-3v-3h-3l-1-2-3-1h-9l-7 1h-5v-3h-2l-3-3-2-1v-2l-4-2-7-3v-2l-9-3-4-4 4-1-3-4v-2l-14-7-13-8-17-10-13-7-1-3-3-1v-2l-4-2-6-5-7-8-7-4v-2l-8-2h-2v2l-4 4-2 3h-2l2-5z" fill="#44A75E"/>
<path transform="translate(480,702)" d="m0 0 7 6 9 7 5 2 8 1 39 1 36 2 218 1h368l3-1-7-1v-1l24-1 8-2h8l2 1-2 4-8 3-11 1-152 1h-402l-125-1-9-1-10-6-6-7-3-6z" fill="#1F45BB"/>
<path transform="translate(1e3 639)" d="m0 0h17l3 3 15 42 7 20-1 3h-18l-3-8-1-6-21 1-4 12-1 1h-19l3-10 16-44 5-13z" fill="#E1E5E8"/>
<path transform="translate(839,283)" d="m0 0 9 1 20 1 1 2-7 1-3-2-1 2h-2l-6 2h90l120-1-2-1 1-3h28l4 3-1 1h114l-3-1 1-3h9l11-1h19l6 1v3l-3 1 77 1v2h-856v-2l-3-3 5-2 9-1 6 2 10-2 15 1v4l11 1v-2h-5l4-2 4 2h-2v2h102v-2l-2-1 2-2h14l1 3-1 1h184v-2l-10 1v1l-8-1-4-1v2l-6-2h-5l1-2 5-1 7 1 8-1z" fill="#BFD1E0"/>
<path transform="translate(448,1022)" d="m0 0h11l13 1 6 4 6 8 3 9v24l-3 10-7 8-7 3-11 1h-10l-1-2z" fill="#E8B731"/>
<path transform="translate(583,323)" d="m0 0h790l13 2 5 3 4 11v128l-2-1-2-9-1-63-1-26v-17l-2-12-4-6-7-3-6-1-27-2-16-1h-25l-15-1-13 1-5-1-2 1-6-1-5 1h-7l-10-1h-15l-18 1h-50l-10-1h-186l-6 1h-39l-18 1h-21l-12-2h-12l-9 1-19-1h-50l-8 1-4-1-9 1h-62l-18-1-25 1h-19l-13-1h-33z" fill="#E4E7E9"/>
<path transform="translate(1118,639)" d="m0 0h39l2 1v13l-1 1-21 1-1 11h21l1 2v11l-5 2-17-1v12h24v15l-29 1-13-1z" fill="#E1E5E8"/>
<path transform="translate(600,639)" d="m0 0h38l1 1v13l-1 1h-22v11l21 1v14l-5 1h-16v11h23l1 1v14h-42v-67z" fill="#E0E4E8"/>
<path transform="translate(941,638)" d="m0 0h16l9 2 1 2v17l-6-2-5-2h-12l-7 4-4 8-1 10 3 8 5 5 6 2 11-1 7-3h3v13l-3 5-6 2h-22l-9-4-7-6-5-9-2-7v-17l4-10 9-10 8-5z" fill="#E1E5E8"/>
<path transform="translate(557,638)" d="m0 0h15l9 2 1 1v17l-5-1-4-2h-13l-6 3-5 6-1 3v13l5 8 3 3 4 1h7l13-4h2l1 5-1 12-10 3h-19l-11-4-5-4-6-10-2-5-1-7v-8l3-12 6-9 8-7 7-3z" fill="#E0E4E8"/>
<path transform="translate(1028,962)" d="m0 0h129l135 1 31 1 11 2v1l-27-1-25 1h-441l-54 1-27 1-20 3-7 6 2-4 4-5 9-4 4-2z" fill="#DCB85F"/>
<path transform="translate(824,639)" d="m0 0h40l1 3-1 12-22 1v11l20 1 1 5-1 10h-21l1 25-7 1h-10l-1-1-1-20v-47z" fill="#E1E5E8"/>
<path transform="translate(380,911)" d="m0 0h4l1 2v65l-1 1-8-1-12-3-5-4-3-5-3-21 1-18 3-5 8-5 9-4z" fill="#E7B732"/>
<path transform="translate(1342,911)" d="m0 0h1l-1 10-4 10-1 4-9 2-27 1-248 1h-55l-194-1-49-1-11-2-3-2 11 1 58 1h337l1-1 155-2 18-1h12l1-6 5-5z" fill="#A0B369"/>
<path transform="translate(1051,639)" d="m0 0h53l1 4-1 11-17 1-1 52-17 1-1-1v-53h-18l-1-1v-8z" fill="#E0E5E8"/>
<path transform="translate(718,639)" d="m0 0h53l1 1v14h-18v52l-1 1h-17v-53h-18z" fill="#DFE4E7"/>
<path transform="translate(652,1091)" d="m0 0 1 3-7 18-8 15-8 13-11 14-1 2h277l142 1v1l-75 1-340 1-5-1-1 4h-5l-5-2 1-4 2-2h3v-2l5-5 6-8 5-5 10-15 9-17z" fill="#2A5DCB"/>
<path transform="translate(880,639)" d="m0 0h17l1 1v67l-5 1h-13l-1-21v-47z" fill="#E0E4E8"/>
<path transform="translate(478,482)" d="m0 0h9l10 2 8 7 2 5v9l-4 6-8 6-5 1h-23v-35z" fill="#C3D2E0"/>
<path transform="translate(738,1071)" d="m0 0 9 3 42 1 104 1h139l300-1v1l-20 2-95 1h-343l-91-1-30-1-11-2-4-2z" fill="#3E9E82"/>
<path transform="translate(786,639)" d="m0 0h16l2 1v67h-18z" fill="#DFE4E7"/>
<path transform="translate(324,992)" d="m0 0 4 4 6 8 10 7 13 6 14 3 14 2v66l-2 2h-42l-9 3-6 4h-2l-2 5-8 11-2 4 1 9 5 3 13 2h17l36 1 1 1 1 18 8 2h14l1-18 2-3h9l4 2 1 17 3 1h18l1-15 2-5 21-2 17-3 9-4 10-8 8-9 7-12 4-13 2-14v-20l-3-21-2-6-4-8 1-2 6 10 5 22v29l-5 20-8 15-11 12-10 9-13 4-16 3h-17v12l-2 7-6 2h-13l-5-2-2-4-1-14h-9l-1 17-3 3-5 1h-12l-7-3-1-1-1-18h-54l-14-3-6-7v-6l6-11 4-4 3-7 14-7 3-1 44-1v-63l-25-4-10-4-13-8-9-12z" fill="#DDB85B"/>
<path transform="translate(715,293)" d="m0 0h84l6 2 7 1v1l6 1-2 2-12 1-8 1-42 1h-24l-50-1-18-2 2-4 32-1 1-1z" fill="#4698D8"/>
<path transform="translate(621,1187)" d="m0 0h36v1l-13 2-5 1-2 6-2 1v7l4 2 12 1 6 2 3 3h71l395 1v1l-344 1-55 1h-79l-2-3-11-2-4-5v-2h-2l-8-15z" fill="#3188CE"/>
<path transform="translate(588,1174)" d="m0 0h2l-2 4-11 9-9 8-15 11-20 12-21 10-32 11-18 4-29 3h-25l-24-1-22-4-27-7-25-10-10-6-20-11-9-7 2-1 11 7 22 11v2h4v-2h7l22 8 13 1 8 6 1 3 15 5 20 3 26 1 18-1 22-3 23-6 26-9 23-11 17-10 11-8 11-9 10-9z" fill="#DDB75A"/>
<path transform="translate(657,1187)" d="m0 0h158v1l-124 1-4 2-4 1-9 3-2 3-7 4h-2v2l-2 2 2 1 21 1 12 2 5 1 17 1v1l-58 1-5-2-1-2-3-1-12-1-5-3v-8l3-1 2-5 8-3z" fill="#C4D3E1"/>
<path transform="translate(1288,323)" d="m0 0h85l13 2 5 3 4 11v128l-2-1-2-9-1-63-1-26v-17l-2-12-4-6-7-3-6-1-27-2-16-1h-25l-14-1z" fill="#E3E6E8"/>
<path transform="translate(735,1063)" d="m0 0h2l3 5h12l6 2 13 1 26 1 104 2h225l24 1v1l-118 1h-139l-104-1-42-1-8-3-4-6z" fill="#D9BB6D"/>
<path transform="translate(795,1054)" d="m0 0h419l40 1v1l-12 1h-418l-26-1z" fill="#DDB85B"/>
<path transform="translate(411,912)" d="m0 0h14v66l-1 1h-14v-37z" fill="#E8B731"/>
<path transform="translate(410,1022)" d="m0 0 14 1v66h-14l-1-1v-44z" fill="#DDB85B"/>
<path transform="translate(470,416)" d="m0 0h14l9 2 5 4 2 4v10l-6 8-9 3h-16l-2-3v-27z" fill="#C3D3E1"/>
<path transform="translate(741,933)" d="m0 0 11 1 58 1 255 1 161 1v1l-173 1h-55l-194-1-49-1-11-2z" fill="#2255BE"/>
<path transform="translate(900,625)" d="m0 0h214l69 1-3 3-1-1h-21v1h-37l-9-1-3 1h-86l-241-1-1 2v-2h-23v-1l5-1h24z" fill="#1C3FB7"/>
<path transform="translate(1044,1188)" d="m0 0h295l-4 2-5 1h-12l-7 1h-26l-5 1-5-1h-19l-6-1h-26l-2 1h-8v-2l-4 1h-50l-3 1-6-1-5 1-4-1h-32l-5 1h-11l-2-1-10 1h-21l-5-1-4 1h-6z" fill="#89B9D5"/>
<path transform="translate(705,623)" d="m0 0h328l106 1 46 1v1h-278v-2h-202z" fill="#346FD1"/>
<path transform="translate(547,629)" d="m0 0h129l9 1h4l7 2 1-2 2 1 7-1h5l3 3h-100l-64 1-43 2h-9l3-2 14-1-7-1v-1l23-1 11 1 5-1z" fill="#3288CF"/>
<path transform="translate(782,894)" d="m0 0h535l5 1v1h-8l-2 30h-1l-1-15v-15h-526l-26 1-6 2-12 2-2 1 1-3 15-3 2-1z" fill="#DDB85B"/>
<path transform="translate(1389,1153)" d="m0 0 3 1-7 4-9 1-21 1h-24l-61-1-165-1v-1l9-1h209l49-1z" fill="#2B63CD"/>
<path transform="translate(1217,284)" d="m0 0h24l6 1v3l-3 1 77 1v2h-229l4-2 113-1-8-1 1-3h9z" fill="#BDD0DF"/>
<path transform="translate(745,926)" d="m0 0h4v3l8 1 5 1 30 2 93 1 262 1v1h-337l-58-1-11-2 4-2z" fill="#DDB85B"/>
<path transform="translate(758,629)" d="m0 0h147v2h6v2h-156l-7-1 2-2z" fill="#358BD0"/>
<path transform="translate(1420,1182)" d="m0 0 2 1-6 3-9 1-43 1h-282v-1l185-1v-1l136-1z" fill="#2B6BCA"/>
<path transform="translate(913,629)" d="m0 0h145l1 4h-145z" fill="#348BD0"/>
<path transform="translate(952,1156)" d="m0 0h153v2h165v1l-119 1-2 1-4-1-2 1-4-1h-16l-11-1-1 2-1-1-13 1-5-1-14 1-10-1-31-1v-2h-85z" fill="#2E70CE"/>
<path transform="translate(570,1291)" d="m0 0h7l22 6 46 14 43 14 15 6 3 3-9-2-66-21-46-14-14-3-2 9h-1v-10z" fill="#44A663"/>
<path transform="translate(501,626)" d="m0 0h211l7 1v1l-76 1h-146v-2z" fill="#1C3FB7"/>
<path transform="translate(287,761)" d="m0 0 11 1 1 23-5 4-9 5-12 8-8 5v-6h5v-9h5l-2-2v-4l5-1-1-5 2-1 2 1v5h9l1-5h2v-2h3v-2l-6-2v-3l6-1v-3l-6-1-1-2h-10v-2z" fill="#2A5CCD"/>
<path transform="translate(659,1078)" d="m0 0 1 3 2 14-6 12-7 16-5 10-4 6-4-1 1-7 3-7 3-9 4-8h2l3-9 6-19z" fill="#8BBAD5"/>
<path transform="translate(266,1289)" d="m0 0h4v6l-5-1-16 4-16 5-17 6-17 5-29 9-34 11-10 2 2-5 1 2 15-4 16-6 24-8 62-20z" fill="#45A765"/>
<path transform="translate(1415,292)" d="m0 0 10 1 5 4 3 10 1 39 3-15h1v12l-1 7 3 1-2 9-2 5h-2v-7l-2-4-1 2-2-2-1-43-1-10-4-2-6-4v-2z" fill="#E2E5E8"/>
<path transform="translate(265,301)" d="m0 0 2 1-2 17-1 93h-1l-2-16-1-28v-48l2-16z" fill="#E4E7E9"/>
<path transform="translate(741,933)" d="m0 0 11 1 58 1 159 1v1l-83 1h-82l-49-1-11-2z" fill="#41A26E"/>
<path transform="translate(1318,1075)" d="m0 0h14v1l-20 2-95 1h-52v-1l-28-1v-1z" fill="#3081CE"/>
<path transform="translate(659,1135)" d="m0 0 6 1 1 4-2 6-7 3-7 2-12 1-6 3v1h-14l2-5 4-2 4 1 2-4 3-1v3h8l5-2 2-5 6-1z" fill="#8AB9D5"/>
<path transform="translate(527,665)" d="m0 0h1l2 20 6 12 1 3 12 6 4 1h19l10-1v3l-6 2-5 1-2-1v2l-8 1h-2l-1-2h-8l-5-2-7-4-1-2-4-2-3-3-4-12-1-9 1-11z" fill="#1E44BA"/>
<path transform="translate(470,869)" d="m0 0h35l13 2 1 1-1 14-4 11-10 9-10 6-7 2-36 1-1 62 23 3 3 2-14-1-12-2-1-1v-66l39-1 10-4 11-8 5-8 2-6 1-13-16-1-31-1z" fill="#DDB85B"/>
<path transform="translate(234,367)" d="m0 0 2 4v10l-1 3h2l1 9 1 5 1 8-1 2 4-1-2 6h-2l1 6 1 5v7l-2 7-2-1v-7h-2l-1 2z" fill="#E3E6E8"/>
<path transform="translate(919,650)" d="m0 0 1 2-5 10-1 3v17l3 10 7 9 9 5 3 1h22l7-1v3l-7 2-13 1h-3l-10-2-6-3-6-4v-2l-4-2-5-8v-25l3-9z" fill="#1F46BB"/>
<path transform="translate(265,1293)" d="m0 0 4 1 2 7 4 44 7 75 2 19 4-2-2 4h-3l-1-1-2-15-2-21-1-2-3-24-1-27-4-45-1-11h-7z" fill="#B7CDDE"/>
<path transform="translate(448,1022)" d="m0 0h11l13 1 6 4 6 8 3 9v24l-3 10-7 8-7 3-11 1h-10l-1-2zm2 2-1 1v27l1 36 4 1 18-2 6-4 5-6 3-11v-20l-5-13-6-7-7-2z" fill="#DDB85B"/>
<path transform="translate(413,1024)" d="m0 0 9 1 1 10-1 3-4 4-1 11-3 5-3 3v-33z" fill="#E8B731"/>
<path transform="translate(1136,680)" d="m0 0h13l7 1 3 9 3 1v1h-26z" fill="#1F46BB"/>
<path transform="translate(1198,716)" d="m0 0h8l2 1-2 4-8 3-11 1h-54v-1l36-1 4-2-7-1v-1l24-1z" fill="#2047BD"/>
<path transform="translate(1059,285)" d="m0 0h28l4 3-1 1 6 1-4 2h-46l-1-2 15-1-2-1z" fill="#C5D3E1"/>
<path transform="translate(1080,1158)" d="m0 0h190v1l-119 1-2 1-4-1-2 1-4-1h-16l-11-1-1 2-1-1-13 1-5-1-14 1-10-1v-1z" fill="#3289CF"/>
<path transform="translate(643,1213)" d="m0 0 4 1 2 2h28l49 1 26 1v1h-113l3-2h2z" fill="#2B61CD"/>
<path transform="translate(411,912)" d="m0 0h14v66l-1 1h-14v-37zm2 2-1 8-1 49 1 6 9 1 2-1 1-12v-51z" fill="#DDB85B"/>
<path transform="translate(995,382)" d="m0 0h71l12 1 3 3h-28l-21-1h-32l-3 1-1 3z" fill="#2249C1"/>
<path transform="translate(201,1120)" d="m0 0 3 3 12 20 18 22 1 2-6 11-1-2 2-6-3-9-10-6-5-7-4-10-7-15z" fill="#E4E7E9"/>
<path transform="translate(295,282)" d="m0 0h13l11 1h13v2l-10 1-1 4-22 1-2-3-12-3 2-2z" fill="#E4E7E9"/>
<path transform="translate(652,1091)" d="m0 0 1 3-7 18-8 15-8 13-11 14-1 2-6-1v-2l5-5 6-8 5-5 10-15 9-17z" fill="#3289CF"/>
<path transform="translate(1337,971)" d="m0 0 3 3 4 6 1 10-4 8-10 7-9 2h-92v-1h89v-2l12-3v-2l9-6 2-3v-8l-5-9z" fill="#DCB85C"/>
<path transform="translate(336,1363)" d="m0 0v3l-7 11-38 57-3-1 4-5 1-3h2l2-6 18-27 13-20z" fill="#44A761"/>
<path transform="translate(637,1184)" d="m0 0 89 1-1 2-67 1-22-1-5-1v-1z" fill="#254EC6"/>
<path transform="translate(1389,1153)" d="m0 0 3 1-7 4-9 1-21 1h-24l-7-1-1-3 49-1z" fill="#2F7ACE"/>
<path transform="translate(433,847)" d="m0 0h13l2 1v13h-2v-2l-9-2-10-2-1 2v-6l4-2h3z" fill="#C6D4E1"/>
<path transform="translate(1386,287)" d="m0 0h7l7 3 7 1 1 2-87-1v-2h56l8 1-1-3z" fill="#C4D3E1"/>
<path transform="translate(287,761)" d="m0 0 11 1 1 23-6 1-5 4h-4l-2-4 8-1 1-5h2v-2h3v-2l-6-2v-3l6-1v-3l-6-1-1-2h-10v-2z" fill="#2851CB"/>
<path transform="translate(899,640)" d="m0 0h1l1 29 1 23-2 16-7 2-9 1-2-1v-2l4-1h12v-27z" fill="#1C3FB7"/>
<path transform="translate(674,653)" d="m0 0h8l4 3 1 7-4 4-2 1h-6l-2-3v-11z" fill="#2953CC"/>
<path transform="translate(662,629)" d="m0 0h14l9 1h4l7 2 1-2 2 1 7-1h5l3 3h-68v-1l5-1v-1z" fill="#3188CE"/>
<path transform="translate(470,425)" d="m0 0 2 4 1 12h18l1 4-7 2h-16l-1-1v-18z" fill="#DFE4E7"/>
<path transform="translate(864,629)" d="m0 0h41v2h6v2h-39l-11-1z" fill="#3B8FD2"/>
<path transform="translate(326,894)" d="m0 0v3l-6 8-3 8-5 20v22l3 15 5 14 4 6-1 2-6-9-5-15-3-16v-17l4-17 2-11 9-11z" fill="#DDB85B"/>
<path transform="translate(666,379)" d="m0 0 16 1v2h5v1h-21l-18 2-3 2-5 1-5-2 1-2 11-3z" fill="#2049BC"/>
<path transform="translate(617,655)" d="m0 0h19l-3 1-1 6h2v2l2 1h-19z" fill="#1C3FB7"/>
<path transform="translate(545,628)" d="m0 0h130l-1 2h-126l-4 1-1-2z" fill="#2951CD"/>
<path transform="translate(1021,640)" d="m0 0 4 4 2 8 4 10 10 29 1 1 2 12h-2l-7-20-11-31-3-8z" fill="#1E44BA"/>
<path transform="translate(583,869)" d="m0 0 5 3 8 11 9 14 2 4v4l-3-1-9-15-3-3-10-14z" fill="#DDB85B"/>
<path transform="translate(1161,693)" d="m0 0h1v17l-8 1h-34v-2l-2-1 15-1h28z" fill="#1F4BBB"/>
<path transform="translate(380,911)" d="m0 0h4l1 2v65l-1 1-8-1-6-1v-1l14 1-1-64-17 6-8 5-3 3 1-4 5-4 13-6z" fill="#DDB85B"/>
<path transform="translate(1119,629)" d="m0 0 27 1 2 1v2h-51v-3z" fill="#3289CF"/>
<path transform="translate(738,1071)" d="m0 0 9 3 42 1v1l52 1v1h-58l-30-1-11-2-4-2z" fill="#358EB9"/>
<path transform="translate(1217,681)" d="m0 0h1v8l-4 14-6 9-5 4-5 1-14 1h-15l1-2 21-1 12-3 6-7 4-8z" fill="#7AAED7"/>
<path transform="translate(424,383)" d="m0 0h81l15 4 2 1v2l-17-4-13-1h-64l-4 5z" fill="#1C3FB7"/>
<path transform="translate(627,388)" d="m0 0h3v2l-10 6-5 4-6 9-4 1v2l-5 5-6 7-1-2 6-9 9-11 9-8z" fill="#1F45BC"/>
<path transform="translate(719,655)" d="m0 0h17v48l-2-1-1-7v-34l-1-3-7-1-6-1z" fill="#1C3FB7"/>
<path transform="translate(843,397)" d="m0 0h2l10 16 14 21 5 8v2h-3l-4-8-1-3-4-2-3-7-6-7-5-8-2-6-3-4z" fill="#1F46BB"/>
<path transform="translate(903,382)" d="m0 0h41l-1 8-5-3-1-2h-25l-5 4h-4z" fill="#2046BE"/>
<path transform="translate(521,1394)" d="m0 0 4 4 17 25-1 2-4-5-2 1-8-3-1-1v-6l1-2h2l-3-5-4-5z" fill="#DAE1E7"/>
<path transform="translate(999,693)" d="m0 0h21l2 6-1 4-8-5-4-1v-2l-8 4-5 5 1-7z" fill="#1D42B9"/>
<path transform="translate(1136,655)" d="m0 0h20l-3 2-11 1 1 3 4 2 10 1v2h-21z" fill="#204BBC"/>
<path transform="translate(617,1158)" d="m0 0 8 1h38v1l-29 1-7 1h-10v4l10 1v1l-17 1-1-8 7 2z" fill="#2951CD"/>
<path transform="translate(274,1364)" d="m0 0h1l2 21 2 5 5 46v3l4-2-2 4h-3l-1-1-2-15-2-21-1-2-3-24z" fill="#BBD0DF"/>
<path transform="translate(1450,1213)" d="m0 0h5l-3 3-110-1v-1z" fill="#3188CE"/>
<path transform="translate(412,1073)" d="m0 0 3 1 2 5h2l1 4h2l1 4-1 1h-11v-14z" fill="#E8B731"/>
<path transform="translate(624,707)" d="m0 0 16 1-1 2-9 1h-29l-3-1v-2z" fill="#1C40B7"/>
<path transform="translate(1008,661)" d="m0 0 3 3 4 14h-12l3-11z" fill="#1F46BC"/>
<path transform="translate(508,715)" d="m0 0h30l6 1v2h-36l-5-1v-1z" fill="#3289CF"/>
<path transform="translate(609,1155)" d="m0 0 37 1v1l-28 1-2 5h-5l-5-2 1-4z" fill="#2148BF"/>
<path transform="translate(653,665)" d="m0 0 2 3v39h-1l-2-6-1-5 1-6z" fill="#1C3FB7"/>
<path transform="translate(408,1037)" d="m0 0h1v34l-1 6h-1l-1-10v-18z" fill="#C4D3E1"/>
<path transform="translate(674,682)" d="m0 0 5 1 8 12-1 3-6-7-5-2v12h-1z" fill="#1E44BA"/>
<path transform="translate(841,655)" d="m0 0h21v1l-17 2v4h2v3l3 1h-9z" fill="#1F49BA"/>
<path transform="translate(944,654)" d="m0 0h12l12 5v3l-5-1-5-2-16-2z" fill="#1D43B9"/>
<path transform="translate(758,629)" d="m0 0h23l1 2-18 2h-9l-7-1 2-2z" fill="#3289CF"/>
<path transform="translate(755,655)" d="m0 0h15l-14 7v27h-1z" fill="#1C3FB7"/>
<path transform="translate(617,681)" d="m0 0h10l-2 4-1 6h-7z" fill="#1C3FB7"/>
<path transform="translate(794,282)" d="m0 0h39l6 1v1l-36 1-5 1-6-1v-2z" fill="#E4E7E9"/>
<path transform="translate(270,792)" d="m0 0h3v2l3 1 1 4-11 8h-1v-6h5z" fill="#1D41BA"/>
<path transform="translate(1087,655)" d="m0 0h14v1l-10 2-2 3-1 36h-1z" fill="#1C3FB7"/>
<path transform="translate(567,1304)" d="m0 0 2 1-3 31-1 5h-1v-13l1-16z" fill="#43A566"/>
<path transform="translate(404,848)" d="m0 0h5l1 1v9l-5-1h-3l-7-2 4-1 4 1z" fill="#C6D4E1"/>
<path transform="translate(297,786)" d="m0 0 2 1-11 7-13 9-6 4-3 1 2-4 16-10 7-5z" fill="#D7DFE6"/>
<path transform="translate(554,657)" d="m0 0h2l-2 8-4 4-1 11h-2v-13l4-7z" fill="#1F45BC"/>
<path transform="translate(714,703)" d="m0 0 2 1-1 5-8 1h-14v-3h21z" fill="#2045BE"/>
<path transform="translate(995,383)" d="m0 0h45l-1 2h-39l-3 1-1 3z" fill="#1C3FB7"/>
<path transform="translate(501,1363)" d="m0 0 4 4 14 22 2 5-4-4-10-15-5-6z" fill="#CAD8E3"/>
<path transform="translate(492,383)" d="m0 0h13l15 4 2 1v2l-17-4-13-1z" fill="#2048BE"/>
<path transform="translate(732,978)" d="m0 0 1 3v7l3 3 2 1 3 7 1 2-4-2-7-8-1-2v-8z" fill="#DDB85B"/>
<path transform="translate(1034,679)" d="m0 0 3 1 5 12 2 12h-2l-7-20z" fill="#2048BD"/>
<path transform="translate(849,682)" d="m0 0 12 1v1l-11 1-5 2-1 2-1 12h-1v-18z" fill="#1C3FB7"/>
<path transform="translate(791,383)" d="m0 0h33v1l-26 1-7 4-1-5z" fill="#1C3FB7"/>
<path transform="translate(674,653)" d="m0 0h8l4 3-1 4-9-4 1 1-2 1-1 4z" fill="#1F44BC"/>
<path transform="translate(297,781)" d="m0 0h2v4l-6 1-5 4h-4l-2-4 7-1 2 1 1-4 5 1z" fill="#1D42B9"/>
<path transform="translate(274,1364)" d="m0 0h1l2 21 2 5-1 12h-1l-3-24z" fill="#DCE2E7"/>
<path transform="translate(631,1207)" d="m0 0 4 4 10 3-1 3-6 1-7-9z" fill="#45A85E"/>
<path transform="translate(1051,655)" d="m0 0h17l-1 21h-1l-1-17-5-2-9-1z" fill="#1C3FB7"/>
<path transform="translate(1211,704)" d="m0 0 1 3-7 8-4 1-7-1v-1l9-2z" fill="#3A8FD3"/>
<path transform="translate(919,650)" d="m0 0 1 2-5 10-2 7-1 10h-1v-13l3-9z" fill="#1E42BA"/>
<path transform="translate(560,654)" d="m0 0h13l2 1v2h-18v-2z" fill="#2046BE"/>
<path transform="translate(808,287)" d="m0 0h11v2h13v1h-24z" fill="#E1E5E8"/>
<path transform="translate(557,1424)" d="m0 0h1v11l-2 7-5-2-4-5-2-5 9 9 2-5z" fill="#CCD8E3"/>
<path transform="translate(696,630)" d="m0 0 3 1 7-1h5l3 3h-22l4-1z" fill="#3289CF"/>
<path transform="translate(625,1124)" d="m0 0 2 2-7 11-2 1-1-3 5-8z" fill="#E8B731"/>
<path transform="translate(652,1091)" d="m0 0 1 3-7 18-2 3h-2l2-7 6-12z" fill="#3289CF"/>
<path transform="translate(1420,1182)" d="m0 0 2 1-6 3-14 1 1-3z" fill="#2857C9"/>
<path transform="translate(638,1025)" d="m0 0 2 1 1 3v15l-2-1-1-9z" fill="#DDB85B"/>
<path transform="translate(982,682)" d="m0 0 1 4-6 16-2 1 1-9 3-6z" fill="#2049BD"/>
<path transform="translate(1188,402)" d="m0 0h2l-8 20h-1l1-9z" fill="#224DBF"/>
<path transform="translate(1218,282)" d="m0 0h21l2 2-2 1h-17l-5-1z" fill="#E4E7E9"/>
<path transform="translate(923,383)" d="m0 0h20v7l-5-3-1-2-14-1z" fill="#1C3FB7"/>
<path transform="translate(937,658)" d="m0 0 3 1-3 7-2 1-2 6h-1l1-9z" fill="#2046BD"/>
<path transform="translate(1389,1153)" d="m0 0 3 1-3 2-5 1h-7l-5-1v-1z" fill="#2D63CE"/>
<path transform="translate(278,779)" d="m0 0 3 1v5l3 1-1 2h-6v-3-5z" fill="#2951CD"/>
<path transform="translate(1157,630)" d="m0 0h17l2 2-15 1z" fill="#3289CF"/>
<path transform="translate(643,1213)" d="m0 0 4 1 2 3 4 2h-14l3-2h2z" fill="#2C66C9"/>
<path transform="translate(628,1183)" d="m0 0 9 1-1 3h-16l2-2 4 1v-2z" fill="#2951CD"/>
<path transform="translate(231,1163)" d="m0 0 4 4-6 11-1-2 2-6z" fill="#C2D4E1"/>
<path transform="translate(285,833)" d="m0 0 2 2-8 7-1-4 4-4z" fill="#DDB85B"/>
<path transform="translate(283,771)" d="m0 0 4 2h-2l-1 3h-8v-4z" fill="#2951CD"/>
<path transform="translate(1047,639)" d="m0 0h2v14l-3-4v-8z" fill="#1C3FB7"/>
<path transform="translate(293,778)" d="m0 0h5l-1 5h-5l-1 3-2-1 2-5h2z" fill="#2951CD"/>
<path transform="translate(628,1078)" d="m0 0 2 1-1 10-2 3-1-1 1-10z" fill="#DDB85B"/>
<path transform="translate(353,798)" d="m0 0h2v3l-7 3h-5l3-3z" fill="#DDB85B"/>
<path transform="translate(627,388)" d="m0 0h3v2l-10 6h-3l5-5z" fill="#1E42BB"/>
<path transform="translate(611,1168)" d="m0 0h16v1l-15 3z" fill="#1C3FB7"/>
<path transform="translate(886,707)" d="m0 0h7v2l-5 2-6-1v-2z" fill="#204FBC"/>
<path transform="translate(588,285)" d="m0 0h12v3l-4 1-7-1z" fill="#C4D3E1"/>
<path transform="translate(270,800)" d="m0 0 4 1-9 6v-6z" fill="#2954CC"/>
<path transform="translate(928,639)" d="m0 0h7l-3 3-5 3h-2l1-4z" fill="#1E43BA"/>
<path transform="translate(1077,629)" d="m0 0 16 1-2 2h-14z" fill="#3289CF"/>
<path transform="translate(640,630)" d="m0 0h11l2 2-12 1-2-2z" fill="#4496D7"/>
<path transform="translate(830,443)" d="m0 0 3 1 3 9-5-2h-1z" fill="#1D41B9"/>
<path transform="translate(1e3 671)" d="m0 0 4 1 1 6h-7z" fill="#2853CB"/>
<path transform="translate(867,432)" d="m0 0 4 5 3 5v2h-3l-5-10z" fill="#204ABD"/>
<path transform="translate(1088,1156)" d="m0 0h17v2l-17 1z" fill="#2B61CD"/>
<path transform="translate(616,1150)" d="m0 0 3 1-1 5-6-1v-2z" fill="#2E72CE"/>
<path transform="translate(1158,666)" d="m0 0 2 4v6l-1 2h-2v-10z" fill="#245ABF"/>
<path transform="translate(1021,640)" d="m0 0 4 4v6l-2 1-2-6z" fill="#2049BC"/>
</svg>
