<svg version="1.1" xmlns="http://www.w3.org/2000/svg" xmlns:xlink="http://www.w3.org/1999/xlink" width="1280" height="1280" viewBox="0,0,256,256"><g fill="#ffffff" fill-rule="nonzero" stroke="none" stroke-width="1" stroke-linecap="butt" stroke-linejoin="miter" stroke-miterlimit="10" stroke-dasharray="" stroke-dashoffset="0" font-family="none" font-weight="none" font-size="none" text-anchor="none" style="mix-blend-mode: normal"><g transform="translate(0,0.0625) scale(0.125,0.125)"><path transform="translate(64,450)" d="M0,0h1918l3,3v1142l-1,2h-1920l-1,-2v-1143zM705,96l-451,1l-4,31l-5,19l-7,17l-8,15l-8,12l-11,13l-12,12l-15,11l-16,9l-15,7l-20,6l-36,6l-1,23v615l31,4l19,5l15,6l19,10l14,10l10,9l12,12l11,15l8,13l9,21l5,17l4,25l1,10l1,1h1409l2,-2l3,-25l5,-21l8,-20l7,-13l11,-16l12,-14l11,-10l15,-11l16,-9l11,-5l15,-5l24,-5l20,-2v-638l-1,-1l-22,-2l-19,-4l-20,-7l-21,-11l-14,-10l-10,-9l-7,-6l-9,-11l-10,-14l-8,-14l-7,-16l-4,-13l-4,-22l-2,-18l-218,-1z"></path><path transform="translate(775,677)" d="M0,0h802l1,183l-1,2h-802l-1,-1v-182z"></path><path transform="translate(437,1295)" d="M0,0h1138l13,2l10,6l7,8l4,10v14l-4,10l-7,8l-7,4l-10,3h-1149l-9,-3l-8,-6l-5,-6l-4,-8l-1,-4v-10l4,-11l3,-5h2l1,-3l7,-5l8,-3z"></path><path transform="translate(511,645)" d="M0,0h17l12,6l7,8l4,9l1,4l1,32l19,8l16,10l13,12l7,7l10,14l8,16l6,20l2,12v16l-3,9l-5,8l-7,6l-9,4l-4,1h-9l-10,-3l-8,-6l-6,-8l-4,-10l-3,-21l-7,-14l-6,-7l-11,-7l-10,-4l-6,-1h-13l-12,3l-11,6l-9,9l-8,16l-2,16l2,13l7,14l6,7l10,7l10,4l13,2l20,2l17,4l16,7l13,8l15,12l7,8l9,12l8,14l6,17l4,20v22l-3,17l-5,15l-8,16l-9,13l-12,13l-13,10l-16,9l-15,6l-1,33l-4,10l-9,10l-10,5l-3,1h-13l-10,-4l-8,-7l-5,-7l-3,-9l-1,-32l-17,-7l-12,-7l-12,-9l-13,-13l-10,-14l-6,-10l-7,-19l-4,-19v-17l4,-11l6,-8l9,-6l6,-2h15l10,4l7,6l6,10l2,6l3,20l5,12l4,5v2h2l5,5l9,6l13,4h16l11,-3l11,-6l7,-6l7,-11l4,-11l1,-16l-3,-12l-6,-12l-7,-8l-11,-7l-9,-3l-15,-2l-19,-2l-15,-4l-16,-7l-12,-7l-10,-8l-15,-15l-10,-15l-8,-16l-5,-18l-2,-11v-22l3,-17l6,-18l8,-15l8,-11l9,-10l7,-7l14,-10l16,-8l10,-4l1,-31l3,-10l6,-9l8,-6z"></path><path transform="translate(774,1143)" d="M0,0h801l13,2l10,6l7,8l4,10v14l-4,10l-7,8l-6,4l-11,3h-812l-11,-4l-9,-8l-6,-12l-1,-8l2,-11l4,-8l7,-7l12,-6z"></path><path transform="translate(775,991)" d="M0,0h800l13,2l10,6l7,8l4,10v14l-4,10l-7,8l-6,4l-12,3h-811l-11,-4l-9,-8l-6,-12l-1,-10l2,-9l4,-8l7,-7l12,-6z"></path></g></g></svg>