<svg version="1.1" xmlns="http://www.w3.org/2000/svg" xmlns:xlink="http://www.w3.org/1999/xlink" width="1280" height="1280" viewBox="0,0,256,256"><g fill="#ffffff" fill-rule="nonzero" stroke="none" stroke-width="1" stroke-linecap="butt" stroke-linejoin="miter" stroke-miterlimit="10" stroke-dasharray="" stroke-dashoffset="0" font-family="none" font-weight="none" font-size="none" text-anchor="none" style="mix-blend-mode: normal"><g transform="translate(0.0625,0) scale(0.125,0.125)"><path transform="translate(985,256)" d="M0,0h80l47,3l46,5l40,6l42,8l38,9l29,8l29,9l43,15l30,12l28,12l26,12l19,10l24,12l24,14l27,16l17,11l24,16l16,12l14,10l13,10l14,11l13,11l11,9l10,9l8,7l10,9l13,12l14,14l6,5l7,8l15,15l7,8l12,13l9,11l10,11l11,14l13,16l14,19l13,18l28,42l12,20l13,22l13,24l11,21l11,23l13,29l13,32l13,36l12,37l14,51l9,41l7,39l6,43l4,43l2,35v47l-5,10l-7,7l-10,4l-15,1h-328l-10,-2l-7,-4l-5,-5l-5,-7l-2,-10l-2,-45l-4,-40l-6,-35l-7,-31l-8,-29l-11,-33l-11,-28l-13,-28l-11,-22l-13,-23l-15,-24l-11,-16l-13,-18l-13,-16l-9,-11l-10,-11l-7,-8l-12,-13l-17,-17l-8,-7l-10,-9l-11,-9l-16,-13l-16,-12l-20,-14l-19,-12l-24,-14l-27,-14l-21,-10l-29,-12l-25,-9l-25,-8l-40,-10l-27,-5l-27,-4l-30,-3l-18,-1h-60l-37,3l-30,4l-36,7l-24,6l-30,9l-26,9l-32,13l-33,16l-21,11l-17,10l-19,12l-16,11l-19,14l-14,11l-13,11l-15,13l-9,9l-8,7l-11,11l-7,8l-13,14l-6,8h-2l-2,4l-14,17l-14,19l-11,16l-12,19l-12,20l-6,11l-18,36l-8,19l-9,23l-12,36l-8,29l-6,27l-5,27l-4,32l-2,29l-1,27l-2,15l-6,10l-5,4l-10,4l-16,1h-324l-13,-2l-7,-4l-7,-7l-4,-8l-1,-8v-21l2,-45l4,-46l6,-45l8,-45l9,-40l10,-38l8,-25l12,-36l11,-30l17,-40l14,-30l14,-28l12,-22l14,-24l16,-26l10,-15l17,-25l11,-15l12,-16l14,-18l11,-13l8,-10l9,-10l1,-2h2l2,-4l11,-12l9,-10l12,-12l1,-2h2l2,-4h2l2,-4l4,-4h2l2,-4h2v-2h2v-2h2v-2l8,-7l8,-8h2v-2l8,-7l30,-26l10,-8l11,-9l36,-27l20,-14l29,-19l23,-14l24,-14l26,-14l38,-19l27,-12l39,-16l34,-12l47,-15l34,-9l35,-8l42,-8l42,-6l37,-4l28,-2zM2,57l-49,3l-45,5l-43,7l-43,9l-35,9l-27,8l1,7l15,45l14,40l12,36l21,62l15,43l10,31l1,1l8,-1l32,-8l41,-8l37,-5l38,-3h68l46,4l35,5l35,7l15,4h5l12,-38l15,-49l16,-52l21,-69l17,-55v-5l-31,-8l-37,-8l-33,-6l-36,-5l-42,-4l-38,-2zM345,108l-9,29l-14,46l-9,29l-10,32l-25,82l-13,42l-1,7l8,4l21,8l27,12l29,14l27,15l23,14l25,17l15,11l16,12l13,11l11,9l14,13l8,7l29,29l7,8l11,12l8,10l5,-2l18,-14l19,-14l17,-13l21,-16l28,-21l21,-16l19,-14l13,-10l21,-16l28,-21l13,-10v-3l-11,-14l-12,-14l-12,-13l-7,-8l-9,-10l-40,-40l-8,-7l-10,-9l-28,-24l-14,-11l-18,-14l-18,-13l-17,-12l-27,-18l-44,-26l-24,-13l-19,-10l-23,-11l-29,-13l-30,-12l-30,-11zM-296,117l-32,13l-34,15l-35,17l-22,12l-25,14l-40,25l-10,7l-16,11l-19,14l-17,13l-16,13l-10,8l-9,8l-9,7v2l-4,2l-16,15l-12,11l-34,34l-7,8l-10,11l-7,8l-11,13l-9,11l-20,25l2,4l17,12l20,14l17,12l18,13l19,13l15,11l85,60l18,13l16,11l4,-2l10,-13l12,-14l10,-11l7,-8l12,-13l11,-11l8,-7l15,-14l11,-9l13,-11l17,-13l18,-13l16,-11l19,-12l24,-14l22,-12l28,-13l23,-10l8,-3l-2,-10l-14,-40l-12,-36l-18,-53l-14,-40l-12,-36l-12,-35l-5,-16zM814,459l-14,10l-17,13l-16,12l-21,16l-48,36l-21,16l-48,36l-17,13l-19,14l-1,3l9,14l13,21l11,19l9,16l8,16l12,26l13,32l13,38l10,36l8,37l6,37l6,60h279l1,-1l-2,-41l-3,-34l-5,-39l-8,-45l-9,-40l-10,-37l-11,-36l-16,-44l-12,-29l-15,-33l-11,-23l-10,-19l-15,-27l-9,-15l-15,-24l-22,-33zM-754,482l-14,22l-11,18l-15,26l-14,26l-13,26l-14,31l-15,37l-13,36l-12,38l-10,37l-8,34l-5,27l-4,24l-3,19l-4,35l-3,46v16h278l2,-1l4,-46l5,-36l8,-40l8,-31l9,-29l7,-20l11,-28l8,-18l14,-29l11,-21l10,-17l8,-13l4,-7l-10,-8l-16,-11l-18,-13l-19,-13l-15,-11l-20,-14l-18,-13l-19,-13l-16,-12l-16,-11l-17,-12l-14,-10l-17,-12l-13,-9z"></path><path transform="translate(1015,1006)" d="M0,0h16l32,2l29,4l24,5l25,7l21,7l26,11l26,13l20,12l22,15l18,14l10,9l3,2h10l200,-19l12,-1h11l10,4l8,7l5,9l1,5v8l-4,10l-8,12l-7,10l-13,18l-7,10l-13,18l-7,10l-12,17l-8,11l-12,17l-13,18l-14,20l-10,14l-7,10l1,10l4,26l2,21v55l-3,26l-5,30l-6,24l-11,33l-11,26l-12,24l-9,15l-11,17l-13,18l-14,17l-14,15l-17,17l-11,9l-9,8l-12,9l-16,11l-16,10l-14,8l-23,12l-19,8l-25,9l-24,7l-33,7l-33,4l-17,1h-28l-29,-2l-32,-5l-30,-7l-22,-7l-22,-8l-20,-9l-16,-8l-20,-11l-21,-14l-16,-12l-11,-9l-10,-9l-8,-7l-18,-18l-7,-8l-14,-17l-13,-18l-10,-15l-9,-15l-14,-27l-11,-25l-12,-36l-7,-30l-5,-32l-2,-23v-40l3,-31l5,-30l7,-28l11,-33l11,-26l10,-20l16,-27l12,-17l10,-13l9,-11l10,-11l7,-8l14,-14l8,-7l14,-12l19,-14l15,-10l20,-12l27,-14l26,-11l30,-10l24,-6l28,-5l25,-3zM-17,58l-33,4l-26,6l-27,8l-24,10l-25,12l-17,10l-12,8l-11,8l-13,10l-10,9l-8,7l-16,16l-7,8l-9,11l-14,19l-13,21l-14,27l-8,19l-11,33l-6,26l-3,18l-3,32v31l4,36l6,29l8,26l8,21l8,18l12,22l10,16l10,14l10,13l12,14l25,25l11,9l14,11l21,14l23,13l19,9l23,9l29,9l30,6l26,3l16,1h25l32,-3l28,-5l32,-9l21,-8l20,-9l23,-12l23,-15l16,-12l13,-11l8,-7l22,-22l20,-25l10,-15l12,-20l8,-15l12,-28l9,-27l6,-26l4,-24l2,-20v-46l-3,-27l-7,-38l1,-8l4,-9l24,-34l13,-18l12,-17l13,-18l14,-20l24,-34l1,-3l-28,2l-126,12l-19,2h-9l-9,-4l-8,-6l-12,-11l-14,-11l-13,-10l-19,-12l-17,-10l-21,-10l-20,-8l-24,-8l-30,-7l-19,-3l-19,-2z"></path><path transform="translate(1009,1091)" d="M0,0h27l25,2l25,4l24,6l24,8l25,11l21,11l24,16l14,11l14,12l22,22l9,11l11,14l15,23l11,20l11,25l9,27l6,24l4,24l2,22v29l-2,24l-4,24l-7,28l-8,23l-8,18l-8,16l-9,16l-8,12l-14,19l-10,11l-7,8l-14,14h-2v2l-11,9l-10,8l-17,12l-15,9l-18,10l-23,10l-30,10l-25,6l-27,4l-11,1h-41l-24,-3l-22,-4l-27,-7l-27,-10l-25,-12l-22,-13l-17,-12l-16,-13l-13,-12l-15,-15l-9,-11l-12,-15l-13,-20l-12,-21l-9,-19l-9,-24l-8,-28l-5,-28l-2,-19v-43l3,-25l5,-25l7,-25l9,-24l9,-20l9,-16l10,-16l13,-18l12,-14l11,-12l12,-12l11,-9l12,-10l24,-16l25,-14l25,-11l24,-8l24,-6l24,-4zM5,57l-23,2l-18,3l-20,5l-18,6l-19,8l-22,12l-15,10l-13,10l-14,12l-16,16l-11,14l-9,12l-9,15l-12,23l-8,20l-7,23l-5,26l-2,20v28l3,28l6,26l8,24l9,20l9,17l10,15l8,11l11,13l13,14l11,9l10,9l16,11l17,10l23,11l19,7l22,6l14,3l28,3h27l22,-2l25,-5l21,-6l22,-9l16,-8l16,-9l10,-7l13,-10l11,-9l20,-20l11,-14l9,-12l12,-20l11,-23l11,-33l5,-24l2,-16l1,-15v-19l-3,-30l-6,-27l-8,-24l-8,-18l-11,-21l-12,-18l-8,-10l-11,-13l-16,-16l-11,-9l-13,-10l-21,-13l-22,-11l-24,-9l-23,-6l-22,-4l-25,-2z"></path><path transform="translate(996,757)" d="M0,0h55l42,4l35,6l36,9l36,12l28,11l33,16l23,13l16,10l5,3l-10,-32l-2,-9v-8l4,-10l6,-7l12,-6h14l10,5l8,9l7,19l15,48l21,66l1,4v12l-5,10l-4,5l-8,5l-6,2h-26l-103,-5l-15,-2l-10,-6l-6,-8l-3,-7v-12l4,-10l5,-5l6,-5l5,-2l6,-1l45,1l-18,-12l-21,-12l-28,-14l-27,-11l-33,-11l-32,-8l-29,-5l-26,-3l-17,-1h-45l-34,3l-30,5l-30,7l-26,8l-22,8l-23,10l-16,8l-19,10l-18,11l-19,13l-12,9l-16,13l-11,9l-8,8l-8,7l-10,10l-7,8l-9,10l-22,28l-11,16l-12,19l-12,22l-8,16l-8,18l-10,26l-9,29l-7,30l-4,24l-2,13l-2,28l-1,25l-2,9l-6,9l-6,5l-8,3h-14l-8,-3l-7,-6l-5,-9l-2,-8v-16l2,-30l4,-33l5,-28l9,-36l12,-36l9,-22l11,-24l13,-25l10,-17l16,-24l10,-14l11,-14l9,-11l9,-10l7,-8l14,-15l15,-14l10,-9l11,-9l16,-13l14,-10l18,-12l18,-11l18,-10l17,-9l32,-14l28,-10l26,-8l30,-7l35,-6l28,-3z"></path><path transform="translate(1016,1199)" d="M0,0h15l10,5l5,5l5,8l1,4v30l17,4l16,6l16,9l10,8l10,10l9,14l2,5v15l-5,9l-4,5l-6,4l-10,3l-11,-1l-10,-5l-6,-7l-6,-8l-10,-7l-14,-5l-15,-3h-23l-16,3l-12,5l-6,4l-5,5l-3,8l1,8l5,8l8,6l16,7l17,5l36,9l18,6l16,7l15,9l13,11l8,9l7,11l6,16l2,13v10l-3,17l-5,13l-3,6l-10,14l-7,7l-13,9l-14,7l-16,5l-14,3v18l-1,13l-4,8l-6,7l-10,5l-11,1l-9,-2l-8,-6l-5,-6l-3,-7l-1,-6v-27l-10,-1l-18,-6l-17,-8l-12,-8l-12,-11l-7,-8l-8,-14l-1,-4v-10l4,-9l4,-6l8,-6l6,-2h13l9,4l8,7l8,11l11,7l13,5l11,3l19,2l19,-1l16,-4l12,-6l6,-7l3,-12l-2,-9l-4,-5l-11,-7l-13,-6l-23,-7l-36,-9l-23,-8l-17,-9l-10,-8l-9,-8l-10,-14l-7,-15l-3,-13v-19l4,-16l7,-14l10,-13l7,-7l14,-10l17,-8l18,-5l6,-2v-25l2,-9l6,-9l8,-6z"></path><path transform="translate(1800,716)" d="M0,0"></path></g></g></svg>