<svg version="1.1" xmlns="http://www.w3.org/2000/svg" xmlns:xlink="http://www.w3.org/1999/xlink" width="1280" height="1280" viewBox="0,0,256,256"><g fill="#ffffff" fill-rule="nonzero" stroke="none" stroke-width="1" stroke-linecap="butt" stroke-linejoin="miter" stroke-miterlimit="10" stroke-dasharray="" stroke-dashoffset="0" font-family="none" font-weight="none" font-size="none" text-anchor="none" style="mix-blend-mode: normal"><g transform="translate(0.0625,0) scale(0.125,0.125)"><path transform="translate(992,12)" d="M0,0h63l36,3l33,5l29,6l33,9l30,10l29,12l24,11l23,12l22,13l27,18l18,13l16,13l13,11l12,11l10,9l18,18l7,8l9,10l9,11l12,15l13,18l14,21l8,13l13,23l11,21l14,32l11,30l9,29l9,38l6,36l3,27l2,39v15l-2,42l-4,34l-6,33l-10,40l-12,36l-13,32l-14,29l-9,17l-13,22l-20,30l-10,13l-7,9l-13,16l-11,12l-7,8l-28,28l-8,7l-15,13l-17,13l-16,12l-12,8l-17,11l-17,10l-24,13l-25,12l-27,11l-22,8l-31,9l-29,7l-27,5l-38,5l-17,1l-1,336l4,-4l10,-17l13,-18l10,-13l12,-14l18,-20l3,-3h2v-2l11,-9l9,-8l19,-14l25,-15l27,-13l25,-9l27,-7l30,-5l22,-2h41l36,3l37,5l27,5l12,4l9,7l6,9l2,7v12l-4,10l-6,8l-9,6l-6,2h-16l-40,-7l-34,-4l-15,-1h-41l-26,3l-23,5l-27,9l-23,11l-18,11l-16,12l-7,6h-2v2l-8,7l-15,15l-1,2h-2l-2,4l-10,12l-13,18l-9,14l-8,13l-7,12l-8,16l-12,25l-13,32l-11,30l11,1l19,4l33,11l20,9l17,9l21,14l14,11l12,11l8,7l8,8l7,8l3,1l21,-9l24,-7l20,-4l16,-2l16,-1h13l26,2l23,4l24,7l18,7l23,11l19,12l12,9l11,9l12,11l9,9l9,11l6,7v2l12,-2l16,-3l21,-2h22l22,2l25,5l17,5l20,8l17,8l16,10l14,10l11,9l15,14l12,13l14,19l12,20l10,21l7,19l6,24l4,29v23l-4,10l-6,8l-5,4l-8,3l-6,1h-1562l-10,-4l-8,-7l-6,-9l-2,-7v-22l4,-28l8,-30l10,-24l11,-21l8,-12l9,-12l11,-13l3,-4h2l2,-4l13,-12l17,-13l15,-10l10,-6l24,-11l24,-8l24,-5l26,-3h23l22,2l22,4l3,1l5,-5l11,-13l9,-10l8,-8l11,-9l10,-8l18,-12l18,-10l17,-8l30,-10l24,-5l16,-2l15,-1h16l25,2l23,4l24,7l20,8l8,4h4l9,-11l7,-8l8,-7l7,-7l14,-11l15,-11l22,-13l23,-11l22,-8l28,-7l16,-3l-7,-21l-12,-30l-13,-29l-10,-20l-14,-24l-9,-14l-10,-14l-11,-14l-12,-14l-16,-16l-8,-7l-14,-11l-17,-11l-20,-11l-25,-10l-26,-7l-25,-4l-12,-1h-44l-31,3l-32,5l-23,4h-15l-10,-4l-8,-7l-5,-9l-2,-5v-14l4,-10l9,-10l11,-5l32,-6l37,-5l36,-3h38l31,3l23,4l24,6l28,10l20,9l20,11l18,12l12,9l13,11l12,11l17,17l9,11l11,13l13,18l10,15l7,12l1,-335l-17,-1l-33,-4l-33,-6l-40,-10l-44,-15l-26,-11l-33,-16l-23,-13l-24,-15l-17,-12l-12,-9l-14,-11l-13,-11l-10,-9l-13,-12l-21,-21l-7,-8l-10,-11l-8,-10l-11,-14l-14,-19l-13,-20l-12,-20l-12,-22l-12,-24l-12,-29l-10,-28l-9,-30l-7,-30l-6,-35l-4,-38l-1,-17v-45l2,-29l5,-38l6,-31l9,-35l12,-36l13,-32l16,-33l10,-18l11,-18l9,-14l14,-20l10,-13l11,-14l9,-10l9,-11l35,-35l11,-9l10,-9l17,-13l12,-9l17,-12l19,-12l26,-15l30,-15l31,-13l20,-7l21,-7l34,-9l36,-7l31,-4zM26,64l-26,1l-32,3l-30,5l-27,6l-31,9l-28,10l-27,12l-30,15l-20,12l-24,16l-15,11l-14,11l-15,13l-13,12l-22,22l-7,8l-12,14l-13,17l-8,11l-10,15l-7,11l-15,26l-12,24l-11,26l-9,24l-10,35l-6,26l-5,31l-3,29l-1,23v23l1,23l4,37l6,33l8,31l12,36l12,29l10,21l12,22l13,21l8,12l14,19l11,14l12,14l11,12l25,25l8,7l15,13l16,12l18,13l19,12l23,13l21,11l28,12l21,8l25,8l27,7l25,5l28,4l23,2l23,1h21l34,-2l32,-4l31,-6l34,-9l27,-9l27,-11l33,-16l25,-14l27,-18l16,-12l14,-11l14,-12l13,-12l22,-22l7,-8l9,-10l13,-17l12,-16l10,-15l13,-21l16,-30l12,-27l9,-23l8,-25l10,-40l6,-37l3,-33v-58l-3,-32l-5,-32l-7,-31l-9,-30l-10,-28l-13,-29l-11,-22l-14,-24l-16,-24l-14,-19l-11,-13l-8,-10l-5,-6h-2l-2,-4l-28,-28l-8,-7l-11,-9l-15,-12l-19,-14l-22,-14l-17,-10l-27,-14l-24,-11l-27,-10l-25,-8l-32,-8l-26,-5l-33,-4l-41,-2zM20,1656l-26,3l-24,6l-21,8l-16,8l-15,9l-16,12l-16,15l-7,7v2h-2l-7,9l-12,17l-7,8l-10,5l-3,1h-13l-11,-4l-13,-8l-15,-8l-21,-8l-21,-5l-13,-2h-40l-22,4l-18,5l-23,10l-20,12l-16,13l-12,11l-7,8l-10,13l-12,18l-1,3h-2v2l-4,2l-10,4l-3,1h-10l-17,-5l-18,-5l-26,-3h-15l-19,2l-15,3l-16,5l-15,6l-19,11l-12,9l-20,18l-11,14l-7,10l-9,16l-8,19l-6,21v1h1481l-4,-16l-6,-17l-8,-16l-7,-12l-9,-12l-11,-12l-10,-10l-18,-13l-17,-10l-20,-8l-21,-6l-25,-3h-17l-19,2l-18,4l-23,7h-10l-11,-4l-8,-7l-14,-21l-8,-10l-9,-10l-9,-9l-14,-11l-15,-10l-16,-8l-14,-6l-19,-6l-23,-4h-40l-23,4l-20,6l-20,9l-20,11l-7,2h-11l-11,-4l-8,-7l-10,-14l-13,-16l-15,-15l-14,-11l-15,-10l-18,-10l-19,-8l-20,-6l-20,-4l-20,-2z"></path><path transform="translate(995,103)" d="M0,0h58l31,3l36,6l32,8l36,12l24,10l27,13l18,10l19,12l16,11l12,9l14,11l14,12l12,11l20,20l7,8l13,15l10,13l12,17l13,20l15,26l14,29l12,30l10,32l8,33l5,31l3,30l1,21v18l-1,23l-4,36l-5,28l-9,36l-9,27l-11,27l-12,25l-9,17l-12,20l-8,12l-13,18l-12,15l-9,11l-14,15l-7,8l-8,7l-9,9l-8,7l-12,10l-13,10l-18,13l-22,14l-21,12l-26,13l-27,11l-36,12l-32,8l-36,6l-28,3l-20,1h-26l-32,-2l-35,-5l-29,-6l-32,-9l-25,-9l-21,-9l-25,-12l-22,-12l-19,-12l-20,-14l-14,-11l-11,-9l-14,-12l-31,-31l-9,-11l-12,-14l-13,-18l-16,-24l-14,-24l-8,-15l-13,-29l-10,-27l-8,-26l-7,-30l-5,-29l-3,-29l-1,-16v-35l2,-28l4,-30l5,-26l6,-24l12,-36l10,-25l14,-29l10,-18l10,-16l8,-12l12,-17l13,-16l7,-8l9,-11l31,-31l11,-9l14,-12l19,-14l15,-10l25,-15l22,-12l29,-13l36,-13l29,-8l29,-6l28,-4zM-11,66l-29,4l-28,6l-31,9l-28,11l-13,6l-1,2l1,3v17l-5,10l-5,6l-12,6l-4,1h-11l-11,-4l-8,-7l-4,1l-12,9l-13,10l-12,11l-8,7l-21,21l-5,6v2h-2l-11,14l-10,13l-4,6l7,8l4,9l1,4v10l-4,11l-4,5v2l-4,2l-9,5l-5,1h-13l-5,-1l-8,16l-10,27l-8,27l-6,26l-5,34v8l29,1l9,4l7,5l6,10l2,6v12l-3,8l-6,9l-9,6l-13,3l-22,1l1,16l5,30l7,30l11,33l12,28l6,-1h14l12,5l7,7l5,10l1,5v9l-3,9l-6,9l-2,2l1,4l10,14l14,17l12,13l7,8l8,7l10,10l11,9l15,12l11,8l8,-6l10,-5l12,-1l13,4l9,8l5,9l1,4v14l-1,5l4,3l29,12l25,8l32,8l32,5l7,1h8l2,-29l4,-10l6,-7l8,-5l7,-2h11l11,4l7,5l6,9l2,7l1,10v15l1,3l16,-1l35,-6l24,-6l36,-12l23,-10l3,-3l-2,-11l2,-11l4,-8l4,-5l10,-6l9,-2h7l10,3l9,6l3,3l6,-4l13,-10l11,-9l14,-12l27,-27l9,-11l13,-16l7,-10l-1,-4l-6,-8l-4,-10v-11l4,-11l7,-9l10,-5l3,-1h15l5,1l3,-5l10,-24l11,-33l8,-34l5,-36v-5l-25,-1l-10,-3l-9,-6l-6,-9l-3,-7v-13l4,-11l7,-8l12,-6l30,-1l-1,-14l-6,-37l-7,-28l-10,-30l-10,-24l-3,-5l-14,2l-12,-3l-8,-6h-2l-7,-14l-1,-4v-10l4,-11l4,-6l4,-5l-8,-10l-8,-11l-13,-15l-7,-8l-25,-25l-11,-9l-16,-13l-12,-8l-4,2l-8,6l-9,3h-12l-10,-4l-7,-5l-4,-5l-4,-10v-15l1,-5l-16,-8l-27,-10l-26,-8l-27,-6l-27,-4l-15,-1v18l-1,12l-5,10l-6,7l-10,5l-4,1h-13l-10,-4l-8,-7l-6,-12l-1,-7l-1,-23z"></path><path transform="translate(1470,1055)" d="M0,0h21l32,2l35,5l36,8l27,8l31,11l31,13l27,13l22,12l14,8l23,14l24,16l14,10l19,14l15,12l14,11l10,9l11,9l32,30l17,17l7,8l10,11l10,13l5,10l1,3v14l-4,9l-7,9l-8,5l-8,2h-11l-23,-5l-17,-2h-26l-22,3l-24,6l-22,8l-24,11l-29,15l-27,16l-48,30l-19,12l-21,13l-20,12l-25,14l-23,12l-21,10l-30,12l-25,8l-24,6l-28,5l-19,2l-16,1h-14l-27,-2l-22,-3l-23,-5l-25,-7l-25,-9l-27,-12l-15,-8l-12,-6l-15,-9l-11,-7l-7,-8l-4,-10l-1,-8l2,-10l4,-8l6,-7l12,-6l4,-1h9l10,3l35,20l25,12l29,11l25,7l28,5l23,2h19l22,-2l23,-4l26,-7l26,-9l25,-11l30,-15l23,-13l25,-15l22,-14l24,-15l21,-13l19,-12l26,-15l28,-15l28,-13l27,-10l26,-7l30,-6l-13,-13l-11,-9l-9,-8l-14,-11l-21,-16l-19,-13l-18,-12l-21,-13l-25,-14l-15,-8l-28,-13l-28,-11l-27,-9l-26,-7l-26,-5l-22,-3l-14,-1h-48l-26,3l-28,6l-21,6l-28,11l-21,10l-21,12l-24,16l-12,9l-16,13l-8,7l-10,9l-7,6l-5,6l-7,6l-7,8l-13,14l-9,11l-13,16l-12,16l-11,12l-9,4l-4,1h-13l-10,-4l-8,-7l-5,-8l-2,-5l-1,-11l3,-10l7,-11l10,-13l9,-12l7,-8l8,-10l22,-24l7,-8l18,-18l8,-7l10,-9l16,-13l17,-13l13,-9l19,-12l21,-12l22,-11l25,-10l30,-10l30,-7l26,-4l21,-2z"></path><path transform="translate(557,1055)" d="M0,0h16l34,2l28,4l28,6l27,8l28,11l24,11l22,12l19,12l20,14l13,10l10,8l14,12l15,14l7,7l6,5l7,8l9,9l7,8l9,10l8,10l13,16l12,16l7,11l3,11l-2,12l-5,10l-9,8l-11,4h-14l-9,-4l-8,-7l-9,-11l-9,-12l-13,-16l-9,-11l-13,-14l-7,-8l-15,-15l-8,-7l-10,-9l-14,-11l-10,-8l-17,-12l-21,-13l-20,-11l-25,-11l-22,-8l-22,-6l-25,-5l-27,-3h-49l-28,3l-31,6l-29,8l-29,10l-24,10l-28,13l-28,15l-20,12l-16,10l-22,15l-15,11l-16,12l-22,18l-15,13l-11,10l31,6l25,7l27,10l28,13l29,15l27,16l48,30l21,13l19,12l20,12l23,13l27,14l27,12l28,10l23,6l21,4l15,2l14,1h18l23,-2l23,-4l23,-6l23,-8l25,-11l20,-10l25,-15l7,-3l13,-1l8,2l8,4l7,7l5,9l1,4v15l-6,12l-9,8l-26,15l-23,12l-27,12l-28,10l-27,7l-25,5l-26,3l-17,1h-16l-24,-2l-22,-3l-24,-5l-27,-8l-30,-11l-29,-13l-24,-12l-23,-13l-24,-14l-19,-12l-72,-45l-22,-13l-32,-17l-24,-11l-23,-8l-23,-6l-22,-3h-29l-20,3l-18,4h-12l-10,-4l-8,-7l-5,-8l-3,-12l2,-11l5,-10l14,-18h2l2,-4l7,-8h2l2,-4l28,-28l8,-7l14,-13l11,-9l14,-12l14,-11l13,-10l19,-14l33,-22l21,-13l26,-15l36,-18l33,-14l34,-12l28,-8l27,-6l33,-5l20,-2z"></path><path transform="translate(1015,233)" d="M0,0h17l9,4l8,7l5,8l2,6l1,13v222l6,2l10,7l10,9l8,10l8,15l4,14l1,6v19l-4,17l-8,16l-10,13l-12,10l-11,6l-12,5l-15,3h-16l-15,-3l-15,-6l-8,-5l-6,2l-24,14l-28,16l-52,30l-16,9l-10,4l-8,1l-9,-2l-9,-5l-8,-9l-4,-8l-1,-5v-8l3,-10l6,-9l9,-7l28,-16l24,-14l23,-13l17,-10l28,-16l2,-1l1,-19l4,-16l5,-11l6,-10l9,-10l10,-9l12,-7l1,-228l2,-10l5,-9l5,-5l7,-5zM7,317l-7,3l-5,6l-1,9l4,7l4,4l10,1l6,-3l5,-6l1,-8l-4,-8l-5,-4z"></path></g></g></svg>