<svg version="1.1" xmlns="http://www.w3.org/2000/svg" xmlns:xlink="http://www.w3.org/1999/xlink" width="1280" height="1280" viewBox="0,0,256,256"><g fill="#ffffff" fill-rule="nonzero" stroke="none" stroke-width="1" stroke-linecap="butt" stroke-linejoin="miter" stroke-miterlimit="10" stroke-dasharray="" stroke-dashoffset="0" font-family="none" font-weight="none" font-size="none" text-anchor="none" style="mix-blend-mode: normal"><g transform="translate(0.0625,0.0625) scale(0.125,0.125)"><path transform="translate(157,127)" d="M0,0l11,1l9,4l8,7l5,7l2,7l1,52v516l-1,1134h448l-1,-3v-386l2,-11l4,-8l7,-8l10,-5l4,-1h12l11,4l9,8l5,9l2,12v372l-1,17h192l-1,-6v-593l1,-11l4,-10l8,-9l9,-5l4,-1h14l10,4l8,7l5,7l3,12v605h63l-1,-395v-57l1,-93l4,-10l8,-9l12,-6h16l9,4l8,7l5,7l3,12v540h191v-552l4,-10l6,-8l7,-5l9,-3h13l10,4l10,9l4,8l2,8v549h63v-651l4,-10l5,-7l9,-6l9,-3h11l11,4l9,8l5,9l2,8v648h191v-847l5,-12l9,-9l9,-4l5,-1h9l10,3l8,6l7,9l3,10v845h157l13,2l10,6l7,8l4,10v15l-6,12l-9,8l-8,3l-6,1h-1737l-11,-4l-9,-8l-5,-9l-2,-13v-1728l2,-9l4,-8l5,-6l10,-6z"></path><path transform="translate(1709,692)" d="M0,0h13l57,8l63,9l15,4l9,7l4,5l4,7l1,4v15l-10,66l-7,51l-3,12l-4,8l-5,5l-5,4l-11,4h-13l-10,-4l-8,-7l-5,-8l-2,-6v-16l6,-41l-1,-1l-11,8l-18,14l-13,10l-12,9l-13,10l-16,12l-18,14l-26,20l-56,43l-12,9l-13,10l-18,14l-55,42l-13,10l-21,16l-16,12l-14,11l-26,20l-12,9l-13,10l-18,14l-20,15l-18,14l-39,30l-12,9l-56,43l-12,9l-13,10l-13,9l-10,4h-11l-13,-5l-19,-12l-24,-15l-21,-13l-24,-15l-21,-13l-24,-15l-21,-13l-24,-15l-21,-13l-19,-12l-17,-10l-8,6l-9,8l-11,9l-13,11l-11,9l-17,14l-11,9l-13,11l-11,9l-13,11l-22,18l-13,11l-11,9l-13,11l-10,8l-14,12l-10,8l-13,11l-10,8l-14,12l-14,11l-8,7l-11,9l-13,11l-10,8l-13,11l-11,9l-13,11l-10,8l-12,10l-11,7l-6,2l-10,1l-12,-3l-9,-7l-4,-5l-4,-8l-1,-4v-11l4,-11l6,-8l14,-11l11,-10l14,-11l15,-13l14,-11l14,-12l11,-9l13,-11l11,-9l13,-11l14,-11l8,-7l11,-9l13,-11l11,-9l13,-11l11,-9l17,-14l13,-11l10,-8l13,-11l11,-9l13,-11l11,-9l13,-11l10,-8l13,-11l10,-8l13,-11l11,-9l13,-11l11,-7l10,-3l10,1l10,4l20,12l19,12l26,16l24,15l19,12l26,16l48,30l26,16l24,15l6,3l15,-12l11,-8l18,-14l20,-15l18,-14l13,-10l38,-29l18,-14l16,-12l18,-14l13,-10l12,-9l18,-14l16,-12l13,-10l18,-14l20,-15l18,-14l16,-12l18,-14l34,-26l18,-14l20,-15l18,-14l90,-69l16,-12l18,-14l11,-8h2l1,-4l-14,-1l-33,-5l-11,-4l-8,-6l-6,-9l-3,-10v-7l4,-13l9,-10l9,-5z"></path><path transform="translate(630,270)" d="M0,0l31,1l31,3l28,5l30,8l23,8l30,13l24,13l17,11l17,12l10,8l13,11l10,9l20,20l7,8l12,15l13,18l13,21l12,22l12,27l8,23l7,24l6,28l3,22l1,12v55l-3,26l-4,23l-7,28l-8,24l-8,20l-11,23l-10,18l-12,18l-4,5l-10,6l-7,2h-11l-11,-4l-10,-9l-5,-10l-1,-5v-9l4,-11l12,-20l10,-19l10,-22l9,-27l6,-25l4,-27l1,-9v-52l-3,-24l-4,-20l-6,-22l-9,-24l-11,-23l-10,-17l-8,-12l-9,-12l-13,-16l-7,-7v-2h-2l-5,-5l-1,-3l-4,-2l-7,-7l-14,-11l-16,-12l-21,-13l-27,-14l-27,-11l-26,-8l-29,-6l-26,-3h-45l-30,4l-25,6l-30,10l-20,9l-24,14l-18,11l-6,2h-15l-9,-4l-8,-7l-5,-8l-2,-6v-12l5,-12l11,-12l14,-11l22,-12l21,-9l20,-7l26,-8l30,-7l27,-5l16,-2z"></path><path transform="translate(356,419)" d="M0,0h12l12,5l6,5l6,10l2,6v13l-5,12l-11,17l-13,24l-9,21l-9,27l-6,26l-4,38v24l3,30l4,22l6,24l8,23l9,21l10,20l13,21l12,17l11,13l9,11l16,16l8,7l16,13l24,16l22,12l20,9l20,7l21,6l22,4l30,3h32l31,-3l22,-4l26,-7l27,-10l23,-11l17,-10l13,-8l12,-4h7l11,3l8,6l6,7l4,9l1,10l-2,9l-4,8l-8,8l-13,8l-17,10l-19,10l-26,11l-30,10l-30,7l-24,4l-17,2l-17,1h-29l-27,-2l-36,-6l-31,-8l-31,-11l-32,-15l-21,-12l-18,-12l-16,-12l-11,-9l-12,-11l-10,-9l-9,-9l-7,-8l-12,-14l-15,-20l-11,-17l-12,-21l-11,-22l-11,-28l-7,-22l-6,-24l-5,-30l-2,-20l-1,-17v-17l2,-31l4,-28l6,-26l7,-24l7,-19l10,-23l13,-25l8,-13l8,-12l9,-8z"></path><path transform="translate(762,479)" d="M0,0h12l11,4l9,8l6,12l1,12l-3,10l-6,9l-258,258l-10,6l-8,2h-8l-10,-3l-9,-6l-6,-9l-3,-7v-15l4,-10l11,-12l252,-252l9,-5z"></path><path transform="translate(759,671)" d="M0,0h18l16,3l14,5l11,6l12,9l6,5l9,11l8,13l5,11l5,19l1,9v11l-2,15l-6,18l-8,15l-8,10l-5,6l-14,11l-10,6l-15,6l-12,3l-9,1h-16l-15,-3l-12,-4l-17,-9l-13,-11l-10,-11l-7,-11l-6,-12l-4,-12l-2,-10l-1,-17l2,-15l4,-14l5,-12l7,-11l8,-10l10,-10l15,-10l16,-7l13,-3zM4,65l-10,4l-8,6l-5,8l-2,6v15l4,9l7,8l8,5l8,2l11,-1l10,-5l7,-6l5,-10l1,-5v-10l-4,-10l-4,-6l-7,-6l-7,-3l-5,-1z"></path><path transform="translate(503,415)" d="M0,0h19l15,3l14,5l14,8l15,12l11,14l8,14l5,13l3,13l1,17l-2,17l-5,16l-8,16l-9,12l-4,5l-14,11l-14,8l-13,5l-12,3l-8,1h-15l-16,-3l-14,-5l-15,-8l-13,-11l-10,-11l-9,-14l-7,-17l-3,-14l-1,-17l2,-16l5,-16l8,-16l8,-11l5,-6l8,-7l13,-9l15,-7l15,-4zM3,65l-10,4l-8,7l-4,6l-3,13l2,12l4,8l8,8l9,4l10,1l9,-2l10,-6l7,-9l3,-10v-10l-4,-10l-4,-6l-7,-6l-11,-4z"></path></g></g></svg>